M48
; DRILL file {KiCad (5.1.7)-1} date 10/28/20 15:09:20
; FORMAT={-:-/ absolute / inch / decimal}
; #@! TF.CreationDate,2020-10-28T15:09:20+05:30
; #@! TF.GenerationSoftware,Kicad,Pcbnew,(5.1.7)-1
; #@! TF.FileFunction,Plated,1,2,PTH
FMAT,2
INCH
T1C0.0157
T2C0.0315
T3C0.0354
T4C0.0394
T5C0.0402
T6C0.0433
T7C0.0492
T8C0.0787
T9C0.0886
T10C0.1772
%
G90
G05
T1
X3.425Y-5.325
X3.425Y-5.4
X3.5Y-5.325
X3.5Y-5.4
X3.57Y-5.67
X3.65Y-5.67
X4.2Y-6.125
X4.2Y-6.2
X4.275Y-6.125
X4.275Y-6.2
X4.31Y-5.67
X4.37Y-5.67
X4.7Y-4.96
X4.82Y-5.84
X5.0Y-5.5
X5.1Y-5.6
X5.64Y-3.26
X6.1735Y-3.2265
X6.175Y-2.225
X6.175Y-2.3
X6.25Y-2.225
X6.25Y-2.3
X6.4Y-5.8
X6.58Y-2.86
X7.25Y-4.925
X7.25Y-5.025
X7.26Y-6.16
X7.34Y-6.16
X7.35Y-4.925
X7.35Y-5.025
X7.45Y-4.925
X7.45Y-5.025
X7.825Y-5.575
X8.68Y-6.2
X8.76Y-6.2
X9.06Y-6.34
X9.14Y-6.34
T2
X7.92Y-5.95
X7.92Y-6.35
X6.025Y-6.3
X6.425Y-6.3
X4.535Y-2.035
X4.535Y-2.435
X4.405Y-2.035
X4.405Y-2.435
X5.05Y-6.3
X5.45Y-6.3
T3
X5.5433Y-6.309
X5.6433Y-6.309
X6.5183Y-6.3025
X6.6183Y-6.3025
T4
X4.415Y-2.735
X4.515Y-2.735
X4.615Y-2.735
X4.715Y-2.735
X4.815Y-2.735
X4.915Y-2.735
X5.015Y-2.735
X5.115Y-2.735
X5.215Y-2.735
X5.315Y-2.735
X4.72Y-5.3
X4.82Y-5.3
X4.92Y-5.3
X5.475Y-2.735
X5.575Y-2.735
X5.675Y-2.735
X5.775Y-2.735
X5.875Y-2.735
X5.975Y-2.735
X6.075Y-2.735
X6.175Y-2.735
X7.375Y-2.735
X7.375Y-2.835
X7.375Y-2.935
X7.375Y-3.035
X7.375Y-3.135
X7.375Y-3.235
X7.375Y-3.335
X7.375Y-3.435
X7.375Y-3.535
X7.375Y-3.635
X7.375Y-3.735
X7.375Y-3.835
X7.375Y-3.935
X7.375Y-4.035
X7.375Y-4.135
X7.375Y-4.235
X7.375Y-4.335
X7.375Y-4.435
X7.475Y-2.735
X7.475Y-2.835
X7.475Y-2.935
X7.475Y-3.035
X7.475Y-3.135
X7.475Y-3.235
X7.475Y-3.335
X7.475Y-3.435
X7.475Y-3.535
X7.475Y-3.635
X7.475Y-3.735
X7.475Y-3.835
X7.475Y-3.935
X7.475Y-4.035
X7.475Y-4.135
X7.475Y-4.235
X7.475Y-4.335
X7.475Y-4.435
X5.5Y-5.55
X5.5Y-5.65
X5.5Y-5.75
X5.5Y-5.85
X4.714Y-6.026
X4.814Y-6.026
X4.914Y-6.026
X5.913Y-5.3324
X5.913Y-5.9576
X6.287Y-5.3324
X6.287Y-5.9576
X6.575Y-4.635
X6.675Y-4.635
X6.775Y-4.635
X6.875Y-4.635
X6.975Y-4.635
X7.075Y-4.635
X7.175Y-4.635
X7.275Y-4.635
X4.775Y-4.635
X4.875Y-4.635
X4.975Y-4.635
X5.075Y-4.635
X5.175Y-4.635
X5.275Y-4.635
X5.375Y-4.635
X5.475Y-4.635
X7.61Y-6.03
X7.61Y-6.13
X7.61Y-6.23
X5.675Y-4.635
X5.775Y-4.635
X5.875Y-4.635
X5.975Y-4.635
X6.075Y-4.635
X6.175Y-4.635
X6.275Y-4.635
X6.375Y-4.635
X5.35Y-5.55
X5.35Y-5.65
X5.35Y-5.75
X5.35Y-5.85
X5.495Y-2.245
X5.495Y-2.345
X5.595Y-2.245
X5.595Y-2.345
X5.695Y-2.245
X5.695Y-2.345
X5.795Y-2.245
X5.795Y-2.345
X5.895Y-2.245
X5.895Y-2.345
X5.995Y-2.245
X5.995Y-2.345
X4.714Y-5.72
X4.814Y-5.72
X4.914Y-5.72
X6.375Y-2.735
X6.475Y-2.735
X6.575Y-2.735
X6.675Y-2.735
X6.775Y-2.735
X6.875Y-2.735
X6.975Y-2.735
X7.075Y-2.735
X4.495Y-5.57
X4.495Y-5.67
X4.495Y-5.77
X4.495Y-5.87
X6.528Y-5.3424
X6.528Y-5.9676
X6.902Y-5.3424
X6.902Y-5.9676
X3.425Y-5.57
X3.425Y-5.67
X3.425Y-5.77
X3.425Y-5.87
T5
X8.275Y-5.225
X8.275Y-5.35
X8.625Y-2.45
X8.775Y-5.475
X8.775Y-5.625
X8.8Y-2.45
X8.925Y-4.4
X8.925Y-4.5179
X9.05Y-4.4
X9.05Y-4.525
X9.175Y-4.4
X9.175Y-4.525
X9.425Y-2.45
X9.45Y-3.05
X9.55Y-4.15
X9.55Y-4.4
X9.55Y-4.525
X9.55Y-5.45
X9.55Y-5.6
X9.625Y-3.05
X9.875Y-4.15
X9.875Y-4.4
X9.875Y-4.525
X9.975Y-2.45
X10.125Y-2.45
X10.175Y-4.15
X10.175Y-4.4
X10.175Y-4.525
X10.65Y-3.05
X10.7Y-4.15
X10.7Y-4.4
X10.7Y-4.525
X10.75Y-2.45
X10.825Y-3.05
X10.9Y-2.45
X11.05Y-2.45
X11.225Y-4.15
X11.225Y-4.4
X11.225Y-4.525
X11.375Y-5.475
X11.375Y-5.625
X11.6Y-2.45
X11.625Y-4.15
X11.625Y-4.4
X11.625Y-4.525
X11.75Y-2.45
X11.85Y-3.05
X11.9Y-2.45
X12.025Y-3.05
X12.05Y-2.45
X12.05Y-4.4
X12.05Y-4.525
X12.05Y-4.75
X12.425Y-5.625
X12.425Y-5.775
X12.5Y-3.425
X12.5Y-3.575
X12.5Y-4.0
X12.5Y-4.125
X12.5Y-4.4
X12.5Y-4.525
X12.5Y-4.75
X12.575Y-5.625
X12.575Y-5.775
X12.6Y-4.4
X12.6Y-4.525
X12.6Y-4.75
X12.625Y-3.425
X12.625Y-3.575
X12.625Y-3.725
X12.625Y-3.85
X12.625Y-4.0
X12.625Y-4.125
X12.7Y-4.4
X12.7Y-4.525
X12.7Y-4.75
X12.775Y-3.575
X12.775Y-3.725
X12.775Y-3.85
X3.815Y-5.37
X3.815Y-5.47
X3.815Y-5.57
X3.815Y-5.67
X3.815Y-5.77
X3.815Y-5.87
X4.1811Y-5.37
X4.1811Y-5.47
X4.1811Y-5.57
X4.1811Y-5.67
X4.1811Y-5.77
X4.1811Y-5.87
T6
X8.175Y-5.95
X8.175Y-6.35
T7
X10.7717Y-3.8142
X11.1732Y-3.8142
X11.2835Y-6.0795
X11.685Y-6.0795
X8.6835Y-6.0795
X9.085Y-6.0795
X9.9835Y-6.0795
X10.385Y-6.0795
X11.9717Y-3.8142
X12.3732Y-3.8142
X9.5835Y-3.8295
X9.985Y-3.8295
T8
X8.4415Y-2.225
X8.8156Y-2.225
X9.1896Y-2.225
X9.5636Y-2.225
X9.9376Y-2.225
X10.3116Y-2.225
X10.6856Y-2.225
X11.0596Y-2.225
X11.4337Y-2.225
X11.8077Y-2.225
X12.1817Y-2.225
X12.5557Y-2.225
T9
X10.6457Y-3.3138
X10.9724Y-3.9138
X11.3228Y-2.9146
X11.3228Y-3.2138
X11.1339Y-5.5795
X11.8346Y-5.1803
X11.8346Y-5.4795
X8.5339Y-5.5795
X9.2346Y-5.1803
X9.2346Y-5.4795
X9.8339Y-5.5795
X10.5346Y-5.1803
X10.5346Y-5.4795
X11.8457Y-3.3138
X12.1724Y-3.9138
X12.5228Y-2.9146
X12.5228Y-3.2138
X9.4339Y-3.3295
X10.1346Y-2.9303
X10.1346Y-3.2295
T10
X12.945Y-4.1733
X12.945Y-4.4567
T0
M30
