%TF.GenerationSoftware,KiCad,Pcbnew,(5.1.7)-1*%
%TF.CreationDate,2020-10-28T15:09:14+05:30*%
%TF.ProjectId,AUVMEC2020,4155564d-4543-4323-9032-302e6b696361,rev?*%
%TF.SameCoordinates,Original*%
%TF.FileFunction,Soldermask,Bot*%
%TF.FilePolarity,Negative*%
%FSLAX46Y46*%
G04 Gerber Fmt 4.6, Leading zero omitted, Abs format (unit mm)*
G04 Created by KiCad (PCBNEW (5.1.7)-1) date 2020-10-28 15:09:14*
%MOMM*%
%LPD*%
G01*
G04 APERTURE LIST*
%ADD10O,1.700000X1.700000*%
%ADD11R,1.700000X1.700000*%
%ADD12C,1.800000*%
%ADD13C,1.830000*%
%ADD14C,2.375000*%
%ADD15C,3.875000*%
%ADD16C,2.150000*%
%ADD17C,3.500000*%
%ADD18O,1.600000X1.600000*%
%ADD19C,1.600000*%
%ADD20R,1.800000X1.800000*%
%ADD21C,3.200000*%
%ADD22O,2.200000X2.200000*%
%ADD23R,2.200000X2.200000*%
%ADD24R,5.516000X5.516000*%
%ADD25C,5.516000*%
%ADD26O,3.016000X1.508000*%
G04 APERTURE END LIST*
D10*
%TO.C,J7*%
X139065000Y-117729000D03*
X136525000Y-117729000D03*
X133985000Y-117729000D03*
X131445000Y-117729000D03*
X128905000Y-117729000D03*
X126365000Y-117729000D03*
X123825000Y-117729000D03*
D11*
X121285000Y-117729000D03*
%TD*%
D12*
%TO.C,U2*%
X159690000Y-151323000D03*
X159690000Y-135443000D03*
X150190000Y-135443000D03*
X150190000Y-151323000D03*
%TD*%
%TO.C,U1*%
X175311000Y-151577000D03*
X175311000Y-135697000D03*
X165811000Y-135697000D03*
X165811000Y-151577000D03*
%TD*%
D13*
%TO.C,PCB1*%
X106201000Y-149098000D03*
X106201000Y-146558000D03*
X106201000Y-144018000D03*
X106201000Y-141478000D03*
X106201000Y-138938000D03*
X106201000Y-136398000D03*
X96901000Y-144018000D03*
X96901000Y-149098000D03*
X96901000Y-146558000D03*
X96901000Y-138938000D03*
X96901000Y-136398000D03*
X96901000Y-141478000D03*
%TD*%
D14*
%TO.C,K6*%
X304080000Y-96880000D03*
X314280000Y-96880000D03*
D15*
X309180000Y-99410000D03*
X300880000Y-84170000D03*
X318080000Y-81630000D03*
X318080000Y-74030000D03*
%TD*%
D16*
%TO.C,K2*%
X286600000Y-154420000D03*
X296800000Y-154420000D03*
D15*
X282800000Y-141720000D03*
X300600000Y-139180000D03*
X300600000Y-131580000D03*
%TD*%
D17*
%TO.C,J2*%
X318915000Y-56515000D03*
X309415000Y-56515000D03*
X299915000Y-56515000D03*
X290415000Y-56515000D03*
X280915000Y-56515000D03*
X271415000Y-56515000D03*
X261915000Y-56515000D03*
X252415000Y-56515000D03*
X242915000Y-56515000D03*
X233415000Y-56515000D03*
X223915000Y-56515000D03*
X214415000Y-56515000D03*
%TD*%
D18*
%TO.C,R5*%
X163195000Y-160020000D03*
D19*
X153035000Y-160020000D03*
%TD*%
D18*
%TO.C,R4*%
X138430000Y-160020000D03*
D19*
X128270000Y-160020000D03*
%TD*%
D10*
%TO.C,J17*%
X135890000Y-148590000D03*
X135890000Y-146050000D03*
X135890000Y-143510000D03*
D11*
X135890000Y-140970000D03*
%TD*%
D10*
%TO.C,J16*%
X124815600Y-145288000D03*
X122275600Y-145288000D03*
D11*
X119735600Y-145288000D03*
%TD*%
D10*
%TO.C,J15*%
X124815600Y-153060400D03*
X122275600Y-153060400D03*
D11*
X119735600Y-153060400D03*
%TD*%
D10*
%TO.C,J14*%
X119888000Y-134620000D03*
X122428000Y-134620000D03*
D11*
X124968000Y-134620000D03*
%TD*%
D12*
%TO.C,D3*%
X168106001Y-160084001D03*
D20*
X165566001Y-160084001D03*
%TD*%
D12*
%TO.C,D2*%
X143341001Y-160249001D03*
D20*
X140801001Y-160249001D03*
%TD*%
D21*
%TO.C,H4*%
X331470000Y-161290000D03*
%TD*%
%TO.C,H3*%
X331470000Y-52070000D03*
%TD*%
%TO.C,H2*%
X85090000Y-161290000D03*
%TD*%
%TO.C,H1*%
X85090000Y-52070000D03*
%TD*%
D22*
%TO.C,D1*%
X207645000Y-161290000D03*
D23*
X207645000Y-151130000D03*
%TD*%
D10*
%TO.C,J1*%
X139700000Y-148590000D03*
X139700000Y-146050000D03*
X139700000Y-143510000D03*
D11*
X139700000Y-140970000D03*
%TD*%
D16*
%TO.C,K4*%
X253580000Y-154420000D03*
X263780000Y-154420000D03*
D15*
X249780000Y-141720000D03*
X267580000Y-139180000D03*
X267580000Y-131580000D03*
%TD*%
D16*
%TO.C,K5*%
X243420000Y-97270000D03*
X253620000Y-97270000D03*
D15*
X239620000Y-84570000D03*
X257420000Y-82030000D03*
X257420000Y-74430000D03*
%TD*%
D14*
%TO.C,K3*%
X273600000Y-96880000D03*
X283800000Y-96880000D03*
D15*
X278700000Y-99410000D03*
X270400000Y-84170000D03*
X287600000Y-81630000D03*
X287600000Y-74030000D03*
%TD*%
D16*
%TO.C,K1*%
X220560000Y-154420000D03*
X230760000Y-154420000D03*
D15*
X216760000Y-141720000D03*
X234560000Y-139180000D03*
X234560000Y-131580000D03*
%TD*%
D11*
%TO.C,J3*%
X114173000Y-149098000D03*
D10*
X114173000Y-146558000D03*
X114173000Y-144018000D03*
X114173000Y-141478000D03*
%TD*%
%TO.C,J4*%
X86995000Y-141478000D03*
X86995000Y-144018000D03*
X86995000Y-146558000D03*
D11*
X86995000Y-149098000D03*
%TD*%
D24*
%TO.C,J5*%
X328803000Y-113201000D03*
D25*
X328803000Y-106001000D03*
%TD*%
D11*
%TO.C,J6*%
X152273000Y-57023000D03*
D10*
X152273000Y-59563000D03*
X149733000Y-57023000D03*
X149733000Y-59563000D03*
X147193000Y-57023000D03*
X147193000Y-59563000D03*
X144653000Y-57023000D03*
X144653000Y-59563000D03*
X142113000Y-57023000D03*
X142113000Y-59563000D03*
X139573000Y-57023000D03*
X139573000Y-59563000D03*
%TD*%
D11*
%TO.C,J8*%
X144145000Y-117729000D03*
D10*
X146685000Y-117729000D03*
X149225000Y-117729000D03*
X151765000Y-117729000D03*
X154305000Y-117729000D03*
X156845000Y-117729000D03*
X159385000Y-117729000D03*
X161925000Y-117729000D03*
%TD*%
%TO.C,J9*%
X184785000Y-117729000D03*
X182245000Y-117729000D03*
X179705000Y-117729000D03*
X177165000Y-117729000D03*
X174625000Y-117729000D03*
X172085000Y-117729000D03*
X169545000Y-117729000D03*
D11*
X167005000Y-117729000D03*
%TD*%
%TO.C,J10*%
X187325000Y-69469000D03*
D10*
X189865000Y-69469000D03*
X187325000Y-72009000D03*
X189865000Y-72009000D03*
X187325000Y-74549000D03*
X189865000Y-74549000D03*
X187325000Y-77089000D03*
X189865000Y-77089000D03*
X187325000Y-79629000D03*
X189865000Y-79629000D03*
X187325000Y-82169000D03*
X189865000Y-82169000D03*
X187325000Y-84709000D03*
X189865000Y-84709000D03*
X187325000Y-87249000D03*
X189865000Y-87249000D03*
X187325000Y-89789000D03*
X189865000Y-89789000D03*
X187325000Y-92329000D03*
X189865000Y-92329000D03*
X187325000Y-94869000D03*
X189865000Y-94869000D03*
X187325000Y-97409000D03*
X189865000Y-97409000D03*
X187325000Y-99949000D03*
X189865000Y-99949000D03*
X187325000Y-102489000D03*
X189865000Y-102489000D03*
X187325000Y-105029000D03*
X189865000Y-105029000D03*
X187325000Y-107569000D03*
X189865000Y-107569000D03*
X187325000Y-110109000D03*
X189865000Y-110109000D03*
X187325000Y-112649000D03*
X189865000Y-112649000D03*
%TD*%
%TO.C,J11*%
X135001000Y-69469000D03*
X132461000Y-69469000D03*
X129921000Y-69469000D03*
X127381000Y-69469000D03*
X124841000Y-69469000D03*
X122301000Y-69469000D03*
X119761000Y-69469000D03*
X117221000Y-69469000D03*
X114681000Y-69469000D03*
D11*
X112141000Y-69469000D03*
%TD*%
%TO.C,J12*%
X139065000Y-69469000D03*
D10*
X141605000Y-69469000D03*
X144145000Y-69469000D03*
X146685000Y-69469000D03*
X149225000Y-69469000D03*
X151765000Y-69469000D03*
X154305000Y-69469000D03*
X156845000Y-69469000D03*
%TD*%
%TO.C,J13*%
X179705000Y-69469000D03*
X177165000Y-69469000D03*
X174625000Y-69469000D03*
X172085000Y-69469000D03*
X169545000Y-69469000D03*
X167005000Y-69469000D03*
X164465000Y-69469000D03*
D11*
X161925000Y-69469000D03*
%TD*%
D18*
%TO.C,R1*%
X201168000Y-151130000D03*
D19*
X201168000Y-161290000D03*
%TD*%
%TO.C,R2*%
X111887000Y-51689000D03*
D18*
X111887000Y-61849000D03*
%TD*%
D19*
%TO.C,R3*%
X115189000Y-51689000D03*
D18*
X115189000Y-61849000D03*
%TD*%
D26*
%TO.C,U3*%
X193294000Y-158242000D03*
X193294000Y-155702000D03*
X193294000Y-153162000D03*
%TD*%
M02*
