%TF.GenerationSoftware,KiCad,Pcbnew,(5.1.7)-1*%
%TF.CreationDate,2020-10-28T15:09:14+05:30*%
%TF.ProjectId,AUVMEC2020,4155564d-4543-4323-9032-302e6b696361,rev?*%
%TF.SameCoordinates,Original*%
%TF.FileFunction,Legend,Top*%
%TF.FilePolarity,Positive*%
%FSLAX46Y46*%
G04 Gerber Fmt 4.6, Leading zero omitted, Abs format (unit mm)*
G04 Created by KiCad (PCBNEW (5.1.7)-1) date 2020-10-28 15:09:14*
%MOMM*%
%LPD*%
G01*
G04 APERTURE LIST*
%ADD10C,0.150000*%
%ADD11C,0.120000*%
%ADD12C,0.200000*%
%ADD13C,0.300000*%
%ADD14C,0.127000*%
%ADD15C,0.254000*%
G04 APERTURE END LIST*
D10*
X140891571Y-94527666D02*
X141367761Y-94527666D01*
X140796333Y-94813380D02*
X141129666Y-93813380D01*
X141463000Y-94813380D01*
X141796333Y-94813380D02*
X141796333Y-94146714D01*
X141796333Y-94337190D02*
X141843952Y-94241952D01*
X141891571Y-94194333D01*
X141986809Y-94146714D01*
X142082047Y-94146714D01*
X142843952Y-94813380D02*
X142843952Y-93813380D01*
X142843952Y-94765761D02*
X142748714Y-94813380D01*
X142558238Y-94813380D01*
X142463000Y-94765761D01*
X142415380Y-94718142D01*
X142367761Y-94622904D01*
X142367761Y-94337190D01*
X142415380Y-94241952D01*
X142463000Y-94194333D01*
X142558238Y-94146714D01*
X142748714Y-94146714D01*
X142843952Y-94194333D01*
X143748714Y-94146714D02*
X143748714Y-94813380D01*
X143320142Y-94146714D02*
X143320142Y-94670523D01*
X143367761Y-94765761D01*
X143463000Y-94813380D01*
X143605857Y-94813380D01*
X143701095Y-94765761D01*
X143748714Y-94718142D01*
X144224904Y-94813380D02*
X144224904Y-94146714D01*
X144224904Y-93813380D02*
X144177285Y-93861000D01*
X144224904Y-93908619D01*
X144272523Y-93861000D01*
X144224904Y-93813380D01*
X144224904Y-93908619D01*
X144701095Y-94146714D02*
X144701095Y-94813380D01*
X144701095Y-94241952D02*
X144748714Y-94194333D01*
X144843952Y-94146714D01*
X144986809Y-94146714D01*
X145082047Y-94194333D01*
X145129666Y-94289571D01*
X145129666Y-94813380D01*
X145748714Y-94813380D02*
X145653476Y-94765761D01*
X145605857Y-94718142D01*
X145558238Y-94622904D01*
X145558238Y-94337190D01*
X145605857Y-94241952D01*
X145653476Y-94194333D01*
X145748714Y-94146714D01*
X145891571Y-94146714D01*
X145986809Y-94194333D01*
X146034428Y-94241952D01*
X146082047Y-94337190D01*
X146082047Y-94622904D01*
X146034428Y-94718142D01*
X145986809Y-94765761D01*
X145891571Y-94813380D01*
X145748714Y-94813380D01*
X147224904Y-93908619D02*
X147272523Y-93861000D01*
X147367761Y-93813380D01*
X147605857Y-93813380D01*
X147701095Y-93861000D01*
X147748714Y-93908619D01*
X147796333Y-94003857D01*
X147796333Y-94099095D01*
X147748714Y-94241952D01*
X147177285Y-94813380D01*
X147796333Y-94813380D01*
X148701095Y-93813380D02*
X148224904Y-93813380D01*
X148177285Y-94289571D01*
X148224904Y-94241952D01*
X148320142Y-94194333D01*
X148558238Y-94194333D01*
X148653476Y-94241952D01*
X148701095Y-94289571D01*
X148748714Y-94384809D01*
X148748714Y-94622904D01*
X148701095Y-94718142D01*
X148653476Y-94765761D01*
X148558238Y-94813380D01*
X148320142Y-94813380D01*
X148224904Y-94765761D01*
X148177285Y-94718142D01*
X149605857Y-93813380D02*
X149415380Y-93813380D01*
X149320142Y-93861000D01*
X149272523Y-93908619D01*
X149177285Y-94051476D01*
X149129666Y-94241952D01*
X149129666Y-94622904D01*
X149177285Y-94718142D01*
X149224904Y-94765761D01*
X149320142Y-94813380D01*
X149510619Y-94813380D01*
X149605857Y-94765761D01*
X149653476Y-94718142D01*
X149701095Y-94622904D01*
X149701095Y-94384809D01*
X149653476Y-94289571D01*
X149605857Y-94241952D01*
X149510619Y-94194333D01*
X149320142Y-94194333D01*
X149224904Y-94241952D01*
X149177285Y-94289571D01*
X149129666Y-94384809D01*
X150320142Y-93813380D02*
X150415380Y-93813380D01*
X150510619Y-93861000D01*
X150558238Y-93908619D01*
X150605857Y-94003857D01*
X150653476Y-94194333D01*
X150653476Y-94432428D01*
X150605857Y-94622904D01*
X150558238Y-94718142D01*
X150510619Y-94765761D01*
X150415380Y-94813380D01*
X150320142Y-94813380D01*
X150224904Y-94765761D01*
X150177285Y-94718142D01*
X150129666Y-94622904D01*
X150082047Y-94432428D01*
X150082047Y-94194333D01*
X150129666Y-94003857D01*
X150177285Y-93908619D01*
X150224904Y-93861000D01*
X150320142Y-93813380D01*
X151843952Y-94813380D02*
X151843952Y-94146714D01*
X151843952Y-94241952D02*
X151891571Y-94194333D01*
X151986809Y-94146714D01*
X152129666Y-94146714D01*
X152224904Y-94194333D01*
X152272523Y-94289571D01*
X152272523Y-94813380D01*
X152272523Y-94289571D02*
X152320142Y-94194333D01*
X152415380Y-94146714D01*
X152558238Y-94146714D01*
X152653476Y-94194333D01*
X152701095Y-94289571D01*
X152701095Y-94813380D01*
X153320142Y-94813380D02*
X153224904Y-94765761D01*
X153177285Y-94718142D01*
X153129666Y-94622904D01*
X153129666Y-94337190D01*
X153177285Y-94241952D01*
X153224904Y-94194333D01*
X153320142Y-94146714D01*
X153463000Y-94146714D01*
X153558238Y-94194333D01*
X153605857Y-94241952D01*
X153653476Y-94337190D01*
X153653476Y-94622904D01*
X153605857Y-94718142D01*
X153558238Y-94765761D01*
X153463000Y-94813380D01*
X153320142Y-94813380D01*
X154510619Y-94146714D02*
X154510619Y-94813380D01*
X154082047Y-94146714D02*
X154082047Y-94670523D01*
X154129666Y-94765761D01*
X154224904Y-94813380D01*
X154367761Y-94813380D01*
X154463000Y-94765761D01*
X154510619Y-94718142D01*
X154986809Y-94146714D02*
X154986809Y-94813380D01*
X154986809Y-94241952D02*
X155034428Y-94194333D01*
X155129666Y-94146714D01*
X155272523Y-94146714D01*
X155367761Y-94194333D01*
X155415380Y-94289571D01*
X155415380Y-94813380D01*
X155748714Y-94146714D02*
X156129666Y-94146714D01*
X155891571Y-93813380D02*
X155891571Y-94670523D01*
X155939190Y-94765761D01*
X156034428Y-94813380D01*
X156129666Y-94813380D01*
X164150000Y-59086666D02*
X166054761Y-59086666D01*
X163769047Y-60229523D02*
X165102380Y-56229523D01*
X166435714Y-60229523D01*
X167769047Y-56229523D02*
X167769047Y-59467619D01*
X167959523Y-59848571D01*
X168150000Y-60039047D01*
X168530952Y-60229523D01*
X169292857Y-60229523D01*
X169673809Y-60039047D01*
X169864285Y-59848571D01*
X170054761Y-59467619D01*
X170054761Y-56229523D01*
X171388095Y-56229523D02*
X172721428Y-60229523D01*
X174054761Y-56229523D01*
X175388095Y-60229523D02*
X175388095Y-56229523D01*
X176721428Y-59086666D01*
X178054761Y-56229523D01*
X178054761Y-60229523D01*
X179959523Y-58134285D02*
X181292857Y-58134285D01*
X181864285Y-60229523D02*
X179959523Y-60229523D01*
X179959523Y-56229523D01*
X181864285Y-56229523D01*
X185864285Y-59848571D02*
X185673809Y-60039047D01*
X185102380Y-60229523D01*
X184721428Y-60229523D01*
X184149999Y-60039047D01*
X183769047Y-59658095D01*
X183578571Y-59277142D01*
X183388095Y-58515238D01*
X183388095Y-57943809D01*
X183578571Y-57181904D01*
X183769047Y-56800952D01*
X184149999Y-56420000D01*
X184721428Y-56229523D01*
X185102380Y-56229523D01*
X185673809Y-56420000D01*
X185864285Y-56610476D01*
X190435714Y-56610476D02*
X190626190Y-56420000D01*
X191007142Y-56229523D01*
X191959523Y-56229523D01*
X192340476Y-56420000D01*
X192530952Y-56610476D01*
X192721428Y-56991428D01*
X192721428Y-57372380D01*
X192530952Y-57943809D01*
X190245238Y-60229523D01*
X192721428Y-60229523D01*
X195197619Y-56229523D02*
X195578571Y-56229523D01*
X195959523Y-56420000D01*
X196150000Y-56610476D01*
X196340476Y-56991428D01*
X196530952Y-57753333D01*
X196530952Y-58705714D01*
X196340476Y-59467619D01*
X196150000Y-59848571D01*
X195959523Y-60039047D01*
X195578571Y-60229523D01*
X195197619Y-60229523D01*
X194816666Y-60039047D01*
X194626190Y-59848571D01*
X194435714Y-59467619D01*
X194245238Y-58705714D01*
X194245238Y-57753333D01*
X194435714Y-56991428D01*
X194626190Y-56610476D01*
X194816666Y-56420000D01*
X195197619Y-56229523D01*
X198054761Y-56610476D02*
X198245238Y-56420000D01*
X198626190Y-56229523D01*
X199578571Y-56229523D01*
X199959523Y-56420000D01*
X200150000Y-56610476D01*
X200340476Y-56991428D01*
X200340476Y-57372380D01*
X200150000Y-57943809D01*
X197864285Y-60229523D01*
X200340476Y-60229523D01*
X202816666Y-56229523D02*
X203197619Y-56229523D01*
X203578571Y-56420000D01*
X203769047Y-56610476D01*
X203959523Y-56991428D01*
X204149999Y-57753333D01*
X204149999Y-58705714D01*
X203959523Y-59467619D01*
X203769047Y-59848571D01*
X203578571Y-60039047D01*
X203197619Y-60229523D01*
X202816666Y-60229523D01*
X202435714Y-60039047D01*
X202245238Y-59848571D01*
X202054761Y-59467619D01*
X201864285Y-58705714D01*
X201864285Y-57753333D01*
X202054761Y-56991428D01*
X202245238Y-56610476D01*
X202435714Y-56420000D01*
X202816666Y-56229523D01*
X156702380Y-163647380D02*
X156130952Y-163647380D01*
X156416666Y-163647380D02*
X156416666Y-162647380D01*
X156321428Y-162790238D01*
X156226190Y-162885476D01*
X156130952Y-162933095D01*
X157083333Y-162742619D02*
X157130952Y-162695000D01*
X157226190Y-162647380D01*
X157464285Y-162647380D01*
X157559523Y-162695000D01*
X157607142Y-162742619D01*
X157654761Y-162837857D01*
X157654761Y-162933095D01*
X157607142Y-163075952D01*
X157035714Y-163647380D01*
X157654761Y-163647380D01*
X157940476Y-162647380D02*
X158273809Y-163647380D01*
X158607142Y-162647380D01*
X159892857Y-162647380D02*
X160083333Y-162647380D01*
X160178571Y-162695000D01*
X160273809Y-162790238D01*
X160321428Y-162980714D01*
X160321428Y-163314047D01*
X160273809Y-163504523D01*
X160178571Y-163599761D01*
X160083333Y-163647380D01*
X159892857Y-163647380D01*
X159797619Y-163599761D01*
X159702380Y-163504523D01*
X159654761Y-163314047D01*
X159654761Y-162980714D01*
X159702380Y-162790238D01*
X159797619Y-162695000D01*
X159892857Y-162647380D01*
X160750000Y-163647380D02*
X160750000Y-162647380D01*
X161321428Y-163647380D01*
X161321428Y-162647380D01*
X134270952Y-162647380D02*
X133794761Y-162647380D01*
X133747142Y-163123571D01*
X133794761Y-163075952D01*
X133890000Y-163028333D01*
X134128095Y-163028333D01*
X134223333Y-163075952D01*
X134270952Y-163123571D01*
X134318571Y-163218809D01*
X134318571Y-163456904D01*
X134270952Y-163552142D01*
X134223333Y-163599761D01*
X134128095Y-163647380D01*
X133890000Y-163647380D01*
X133794761Y-163599761D01*
X133747142Y-163552142D01*
X134604285Y-162647380D02*
X134937619Y-163647380D01*
X135270952Y-162647380D01*
X136556666Y-162647380D02*
X136747142Y-162647380D01*
X136842380Y-162695000D01*
X136937619Y-162790238D01*
X136985238Y-162980714D01*
X136985238Y-163314047D01*
X136937619Y-163504523D01*
X136842380Y-163599761D01*
X136747142Y-163647380D01*
X136556666Y-163647380D01*
X136461428Y-163599761D01*
X136366190Y-163504523D01*
X136318571Y-163314047D01*
X136318571Y-162980714D01*
X136366190Y-162790238D01*
X136461428Y-162695000D01*
X136556666Y-162647380D01*
X137413809Y-163647380D02*
X137413809Y-162647380D01*
X137985238Y-163647380D01*
X137985238Y-162647380D01*
X132223095Y-137088571D02*
X132556428Y-137088571D01*
X132699285Y-137612380D02*
X132223095Y-137612380D01*
X132223095Y-136612380D01*
X132699285Y-136612380D01*
X133699285Y-137517142D02*
X133651666Y-137564761D01*
X133508809Y-137612380D01*
X133413571Y-137612380D01*
X133270714Y-137564761D01*
X133175476Y-137469523D01*
X133127857Y-137374285D01*
X133080238Y-137183809D01*
X133080238Y-137040952D01*
X133127857Y-136850476D01*
X133175476Y-136755238D01*
X133270714Y-136660000D01*
X133413571Y-136612380D01*
X133508809Y-136612380D01*
X133651666Y-136660000D01*
X133699285Y-136707619D01*
X134127857Y-137612380D02*
X134127857Y-136612380D01*
X134127857Y-137088571D02*
X134699285Y-137088571D01*
X134699285Y-137612380D02*
X134699285Y-136612380D01*
X135365952Y-136612380D02*
X135556428Y-136612380D01*
X135651666Y-136660000D01*
X135746904Y-136755238D01*
X135794523Y-136945714D01*
X135794523Y-137279047D01*
X135746904Y-137469523D01*
X135651666Y-137564761D01*
X135556428Y-137612380D01*
X135365952Y-137612380D01*
X135270714Y-137564761D01*
X135175476Y-137469523D01*
X135127857Y-137279047D01*
X135127857Y-136945714D01*
X135175476Y-136755238D01*
X135270714Y-136660000D01*
X135365952Y-136612380D01*
X139676428Y-137612380D02*
X139676428Y-136612380D01*
X140247857Y-137612380D02*
X139819285Y-137040952D01*
X140247857Y-136612380D02*
X139676428Y-137183809D01*
X140676428Y-137231428D02*
X141438333Y-137231428D01*
X141866904Y-137564761D02*
X142009761Y-137612380D01*
X142247857Y-137612380D01*
X142343095Y-137564761D01*
X142390714Y-137517142D01*
X142438333Y-137421904D01*
X142438333Y-137326666D01*
X142390714Y-137231428D01*
X142343095Y-137183809D01*
X142247857Y-137136190D01*
X142057380Y-137088571D01*
X141962142Y-137040952D01*
X141914523Y-136993333D01*
X141866904Y-136898095D01*
X141866904Y-136802857D01*
X141914523Y-136707619D01*
X141962142Y-136660000D01*
X142057380Y-136612380D01*
X142295476Y-136612380D01*
X142438333Y-136660000D01*
X142771666Y-136612380D02*
X143009761Y-137612380D01*
X143200238Y-136898095D01*
X143390714Y-137612380D01*
X143628809Y-136612380D01*
X184658095Y-157615000D02*
X184562857Y-157567380D01*
X184420000Y-157567380D01*
X184277142Y-157615000D01*
X184181904Y-157710238D01*
X184134285Y-157805476D01*
X184086666Y-157995952D01*
X184086666Y-158138809D01*
X184134285Y-158329285D01*
X184181904Y-158424523D01*
X184277142Y-158519761D01*
X184420000Y-158567380D01*
X184515238Y-158567380D01*
X184658095Y-158519761D01*
X184705714Y-158472142D01*
X184705714Y-158138809D01*
X184515238Y-158138809D01*
X185134285Y-158567380D02*
X185134285Y-157567380D01*
X185705714Y-158567380D01*
X185705714Y-157567380D01*
X186181904Y-158567380D02*
X186181904Y-157567380D01*
X186420000Y-157567380D01*
X186562857Y-157615000D01*
X186658095Y-157710238D01*
X186705714Y-157805476D01*
X186753333Y-157995952D01*
X186753333Y-158138809D01*
X186705714Y-158329285D01*
X186658095Y-158424523D01*
X186562857Y-158519761D01*
X186420000Y-158567380D01*
X186181904Y-158567380D01*
X182634285Y-156027380D02*
X182300952Y-155551190D01*
X182062857Y-156027380D02*
X182062857Y-155027380D01*
X182443809Y-155027380D01*
X182539047Y-155075000D01*
X182586666Y-155122619D01*
X182634285Y-155217857D01*
X182634285Y-155360714D01*
X182586666Y-155455952D01*
X182539047Y-155503571D01*
X182443809Y-155551190D01*
X182062857Y-155551190D01*
X183062857Y-155503571D02*
X183396190Y-155503571D01*
X183539047Y-156027380D02*
X183062857Y-156027380D01*
X183062857Y-155027380D01*
X183539047Y-155027380D01*
X184443809Y-156027380D02*
X183967619Y-156027380D01*
X183967619Y-155027380D01*
X184777142Y-155646428D02*
X185539047Y-155646428D01*
X185872380Y-155027380D02*
X186443809Y-155027380D01*
X186158095Y-156027380D02*
X186158095Y-155027380D01*
X187348571Y-156027380D02*
X187015238Y-155551190D01*
X186777142Y-156027380D02*
X186777142Y-155027380D01*
X187158095Y-155027380D01*
X187253333Y-155075000D01*
X187300952Y-155122619D01*
X187348571Y-155217857D01*
X187348571Y-155360714D01*
X187300952Y-155455952D01*
X187253333Y-155503571D01*
X187158095Y-155551190D01*
X186777142Y-155551190D01*
X187777142Y-156027380D02*
X187777142Y-155027380D01*
X188777142Y-155075000D02*
X188681904Y-155027380D01*
X188539047Y-155027380D01*
X188396190Y-155075000D01*
X188300952Y-155170238D01*
X188253333Y-155265476D01*
X188205714Y-155455952D01*
X188205714Y-155598809D01*
X188253333Y-155789285D01*
X188300952Y-155884523D01*
X188396190Y-155979761D01*
X188539047Y-156027380D01*
X188634285Y-156027380D01*
X188777142Y-155979761D01*
X188824761Y-155932142D01*
X188824761Y-155598809D01*
X188634285Y-155598809D01*
X183078809Y-153487380D02*
X183078809Y-152487380D01*
X183650238Y-153487380D02*
X183221666Y-152915952D01*
X183650238Y-152487380D02*
X183078809Y-153058809D01*
X184031190Y-153439761D02*
X184174047Y-153487380D01*
X184412142Y-153487380D01*
X184507380Y-153439761D01*
X184555000Y-153392142D01*
X184602619Y-153296904D01*
X184602619Y-153201666D01*
X184555000Y-153106428D01*
X184507380Y-153058809D01*
X184412142Y-153011190D01*
X184221666Y-152963571D01*
X184126428Y-152915952D01*
X184078809Y-152868333D01*
X184031190Y-152773095D01*
X184031190Y-152677857D01*
X184078809Y-152582619D01*
X184126428Y-152535000D01*
X184221666Y-152487380D01*
X184459761Y-152487380D01*
X184602619Y-152535000D01*
X185031190Y-153106428D02*
X185793095Y-153106428D01*
X186126428Y-152487380D02*
X186697857Y-152487380D01*
X186412142Y-153487380D02*
X186412142Y-152487380D01*
X187602619Y-153487380D02*
X187269285Y-153011190D01*
X187031190Y-153487380D02*
X187031190Y-152487380D01*
X187412142Y-152487380D01*
X187507380Y-152535000D01*
X187555000Y-152582619D01*
X187602619Y-152677857D01*
X187602619Y-152820714D01*
X187555000Y-152915952D01*
X187507380Y-152963571D01*
X187412142Y-153011190D01*
X187031190Y-153011190D01*
X188031190Y-153487380D02*
X188031190Y-152487380D01*
X189031190Y-152535000D02*
X188935952Y-152487380D01*
X188793095Y-152487380D01*
X188650238Y-152535000D01*
X188555000Y-152630238D01*
X188507380Y-152725476D01*
X188459761Y-152915952D01*
X188459761Y-153058809D01*
X188507380Y-153249285D01*
X188555000Y-153344523D01*
X188650238Y-153439761D01*
X188793095Y-153487380D01*
X188888333Y-153487380D01*
X189031190Y-153439761D01*
X189078809Y-153392142D01*
X189078809Y-153058809D01*
X188888333Y-153058809D01*
X163449047Y-134691428D02*
X164210952Y-134691428D01*
X163830000Y-135072380D02*
X163830000Y-134310476D01*
X147574047Y-134691428D02*
X148335952Y-134691428D01*
X147955000Y-135072380D02*
X147955000Y-134310476D01*
X169164047Y-161996428D02*
X169925952Y-161996428D01*
X169545000Y-162377380D02*
X169545000Y-161615476D01*
X144399047Y-161996428D02*
X145160952Y-161996428D01*
X144780000Y-162377380D02*
X144780000Y-161615476D01*
X142113095Y-148090000D02*
X142017857Y-148042380D01*
X141875000Y-148042380D01*
X141732142Y-148090000D01*
X141636904Y-148185238D01*
X141589285Y-148280476D01*
X141541666Y-148470952D01*
X141541666Y-148613809D01*
X141589285Y-148804285D01*
X141636904Y-148899523D01*
X141732142Y-148994761D01*
X141875000Y-149042380D01*
X141970238Y-149042380D01*
X142113095Y-148994761D01*
X142160714Y-148947142D01*
X142160714Y-148613809D01*
X141970238Y-148613809D01*
X142589285Y-149042380D02*
X142589285Y-148042380D01*
X143160714Y-149042380D01*
X143160714Y-148042380D01*
X143636904Y-149042380D02*
X143636904Y-148042380D01*
X143875000Y-148042380D01*
X144017857Y-148090000D01*
X144113095Y-148185238D01*
X144160714Y-148280476D01*
X144208333Y-148470952D01*
X144208333Y-148613809D01*
X144160714Y-148804285D01*
X144113095Y-148899523D01*
X144017857Y-148994761D01*
X143875000Y-149042380D01*
X143636904Y-149042380D01*
X141351190Y-145502380D02*
X141922619Y-145502380D01*
X141636904Y-146502380D02*
X141636904Y-145502380D01*
X142827380Y-146502380D02*
X142494047Y-146026190D01*
X142255952Y-146502380D02*
X142255952Y-145502380D01*
X142636904Y-145502380D01*
X142732142Y-145550000D01*
X142779761Y-145597619D01*
X142827380Y-145692857D01*
X142827380Y-145835714D01*
X142779761Y-145930952D01*
X142732142Y-145978571D01*
X142636904Y-146026190D01*
X142255952Y-146026190D01*
X143255952Y-146502380D02*
X143255952Y-145502380D01*
X144255952Y-145550000D02*
X144160714Y-145502380D01*
X144017857Y-145502380D01*
X143875000Y-145550000D01*
X143779761Y-145645238D01*
X143732142Y-145740476D01*
X143684523Y-145930952D01*
X143684523Y-146073809D01*
X143732142Y-146264285D01*
X143779761Y-146359523D01*
X143875000Y-146454761D01*
X144017857Y-146502380D01*
X144113095Y-146502380D01*
X144255952Y-146454761D01*
X144303571Y-146407142D01*
X144303571Y-146073809D01*
X144113095Y-146073809D01*
X142684523Y-142962380D02*
X142208333Y-142962380D01*
X142160714Y-143438571D01*
X142208333Y-143390952D01*
X142303571Y-143343333D01*
X142541666Y-143343333D01*
X142636904Y-143390952D01*
X142684523Y-143438571D01*
X142732142Y-143533809D01*
X142732142Y-143771904D01*
X142684523Y-143867142D01*
X142636904Y-143914761D01*
X142541666Y-143962380D01*
X142303571Y-143962380D01*
X142208333Y-143914761D01*
X142160714Y-143867142D01*
X143017857Y-142962380D02*
X143351190Y-143962380D01*
X143684523Y-142962380D01*
X142255952Y-141422380D02*
X141684523Y-141422380D01*
X141970238Y-141422380D02*
X141970238Y-140422380D01*
X141875000Y-140565238D01*
X141779761Y-140660476D01*
X141684523Y-140708095D01*
X142636904Y-140517619D02*
X142684523Y-140470000D01*
X142779761Y-140422380D01*
X143017857Y-140422380D01*
X143113095Y-140470000D01*
X143160714Y-140517619D01*
X143208333Y-140612857D01*
X143208333Y-140708095D01*
X143160714Y-140850952D01*
X142589285Y-141422380D01*
X143208333Y-141422380D01*
X143494047Y-140422380D02*
X143827380Y-141422380D01*
X144160714Y-140422380D01*
X131953095Y-148090000D02*
X131857857Y-148042380D01*
X131715000Y-148042380D01*
X131572142Y-148090000D01*
X131476904Y-148185238D01*
X131429285Y-148280476D01*
X131381666Y-148470952D01*
X131381666Y-148613809D01*
X131429285Y-148804285D01*
X131476904Y-148899523D01*
X131572142Y-148994761D01*
X131715000Y-149042380D01*
X131810238Y-149042380D01*
X131953095Y-148994761D01*
X132000714Y-148947142D01*
X132000714Y-148613809D01*
X131810238Y-148613809D01*
X132429285Y-149042380D02*
X132429285Y-148042380D01*
X133000714Y-149042380D01*
X133000714Y-148042380D01*
X133476904Y-149042380D02*
X133476904Y-148042380D01*
X133715000Y-148042380D01*
X133857857Y-148090000D01*
X133953095Y-148185238D01*
X134000714Y-148280476D01*
X134048333Y-148470952D01*
X134048333Y-148613809D01*
X134000714Y-148804285D01*
X133953095Y-148899523D01*
X133857857Y-148994761D01*
X133715000Y-149042380D01*
X133476904Y-149042380D01*
X132548333Y-146502380D02*
X132215000Y-146026190D01*
X131976904Y-146502380D02*
X131976904Y-145502380D01*
X132357857Y-145502380D01*
X132453095Y-145550000D01*
X132500714Y-145597619D01*
X132548333Y-145692857D01*
X132548333Y-145835714D01*
X132500714Y-145930952D01*
X132453095Y-145978571D01*
X132357857Y-146026190D01*
X131976904Y-146026190D01*
X132881666Y-145502380D02*
X133548333Y-146502380D01*
X133548333Y-145502380D02*
X132881666Y-146502380D01*
X131953095Y-142962380D02*
X132524523Y-142962380D01*
X132238809Y-143962380D02*
X132238809Y-142962380D01*
X132762619Y-142962380D02*
X133429285Y-143962380D01*
X133429285Y-142962380D02*
X132762619Y-143962380D01*
X132778523Y-140371580D02*
X132302333Y-140371580D01*
X132254714Y-140847771D01*
X132302333Y-140800152D01*
X132397571Y-140752533D01*
X132635666Y-140752533D01*
X132730904Y-140800152D01*
X132778523Y-140847771D01*
X132826142Y-140943009D01*
X132826142Y-141181104D01*
X132778523Y-141276342D01*
X132730904Y-141323961D01*
X132635666Y-141371580D01*
X132397571Y-141371580D01*
X132302333Y-141323961D01*
X132254714Y-141276342D01*
X133111857Y-140371580D02*
X133445190Y-141371580D01*
X133778523Y-140371580D01*
X119443523Y-154976580D02*
X118967333Y-154976580D01*
X118919714Y-155452771D01*
X118967333Y-155405152D01*
X119062571Y-155357533D01*
X119300666Y-155357533D01*
X119395904Y-155405152D01*
X119443523Y-155452771D01*
X119491142Y-155548009D01*
X119491142Y-155786104D01*
X119443523Y-155881342D01*
X119395904Y-155928961D01*
X119300666Y-155976580D01*
X119062571Y-155976580D01*
X118967333Y-155928961D01*
X118919714Y-155881342D01*
X119776857Y-154976580D02*
X120110190Y-155976580D01*
X120443523Y-154976580D01*
X124358495Y-154973400D02*
X124263257Y-154925780D01*
X124120400Y-154925780D01*
X123977542Y-154973400D01*
X123882304Y-155068638D01*
X123834685Y-155163876D01*
X123787066Y-155354352D01*
X123787066Y-155497209D01*
X123834685Y-155687685D01*
X123882304Y-155782923D01*
X123977542Y-155878161D01*
X124120400Y-155925780D01*
X124215638Y-155925780D01*
X124358495Y-155878161D01*
X124406114Y-155830542D01*
X124406114Y-155497209D01*
X124215638Y-155497209D01*
X124834685Y-155925780D02*
X124834685Y-154925780D01*
X125406114Y-155925780D01*
X125406114Y-154925780D01*
X125882304Y-155925780D02*
X125882304Y-154925780D01*
X126120400Y-154925780D01*
X126263257Y-154973400D01*
X126358495Y-155068638D01*
X126406114Y-155163876D01*
X126453733Y-155354352D01*
X126453733Y-155497209D01*
X126406114Y-155687685D01*
X126358495Y-155782923D01*
X126263257Y-155878161D01*
X126120400Y-155925780D01*
X125882304Y-155925780D01*
X121396238Y-155976580D02*
X121396238Y-154976580D01*
X121872428Y-155976580D02*
X121872428Y-154976580D01*
X122443857Y-155976580D01*
X122443857Y-154976580D01*
X122777190Y-154976580D02*
X123348619Y-154976580D01*
X123062904Y-155976580D02*
X123062904Y-154976580D01*
X124358495Y-147353400D02*
X124263257Y-147305780D01*
X124120400Y-147305780D01*
X123977542Y-147353400D01*
X123882304Y-147448638D01*
X123834685Y-147543876D01*
X123787066Y-147734352D01*
X123787066Y-147877209D01*
X123834685Y-148067685D01*
X123882304Y-148162923D01*
X123977542Y-148258161D01*
X124120400Y-148305780D01*
X124215638Y-148305780D01*
X124358495Y-148258161D01*
X124406114Y-148210542D01*
X124406114Y-147877209D01*
X124215638Y-147877209D01*
X124834685Y-148305780D02*
X124834685Y-147305780D01*
X125406114Y-148305780D01*
X125406114Y-147305780D01*
X125882304Y-148305780D02*
X125882304Y-147305780D01*
X126120400Y-147305780D01*
X126263257Y-147353400D01*
X126358495Y-147448638D01*
X126406114Y-147543876D01*
X126453733Y-147734352D01*
X126453733Y-147877209D01*
X126406114Y-148067685D01*
X126358495Y-148162923D01*
X126263257Y-148258161D01*
X126120400Y-148305780D01*
X125882304Y-148305780D01*
X121396238Y-148356580D02*
X121396238Y-147356580D01*
X121872428Y-148356580D02*
X121872428Y-147356580D01*
X122443857Y-148356580D01*
X122443857Y-147356580D01*
X122777190Y-147356580D02*
X123348619Y-147356580D01*
X123062904Y-148356580D02*
X123062904Y-147356580D01*
X119443523Y-147356580D02*
X118967333Y-147356580D01*
X118919714Y-147832771D01*
X118967333Y-147785152D01*
X119062571Y-147737533D01*
X119300666Y-147737533D01*
X119395904Y-147785152D01*
X119443523Y-147832771D01*
X119491142Y-147928009D01*
X119491142Y-148166104D01*
X119443523Y-148261342D01*
X119395904Y-148308961D01*
X119300666Y-148356580D01*
X119062571Y-148356580D01*
X118967333Y-148308961D01*
X118919714Y-148261342D01*
X119776857Y-147356580D02*
X120110190Y-148356580D01*
X120443523Y-147356580D01*
X119413400Y-138709304D02*
X119365780Y-138804542D01*
X119365780Y-138947400D01*
X119413400Y-139090257D01*
X119508638Y-139185495D01*
X119603876Y-139233114D01*
X119794352Y-139280733D01*
X119937209Y-139280733D01*
X120127685Y-139233114D01*
X120222923Y-139185495D01*
X120318161Y-139090257D01*
X120365780Y-138947400D01*
X120365780Y-138852161D01*
X120318161Y-138709304D01*
X120270542Y-138661685D01*
X119937209Y-138661685D01*
X119937209Y-138852161D01*
X120365780Y-138233114D02*
X119365780Y-138233114D01*
X120365780Y-137661685D01*
X119365780Y-137661685D01*
X120365780Y-137185495D02*
X119365780Y-137185495D01*
X119365780Y-136947400D01*
X119413400Y-136804542D01*
X119508638Y-136709304D01*
X119603876Y-136661685D01*
X119794352Y-136614066D01*
X119937209Y-136614066D01*
X120127685Y-136661685D01*
X120222923Y-136709304D01*
X120318161Y-136804542D01*
X120365780Y-136947400D01*
X120365780Y-137185495D01*
X125550561Y-139137876D02*
X125598180Y-138995019D01*
X125598180Y-138756923D01*
X125550561Y-138661685D01*
X125502942Y-138614066D01*
X125407704Y-138566447D01*
X125312466Y-138566447D01*
X125217228Y-138614066D01*
X125169609Y-138661685D01*
X125121990Y-138756923D01*
X125074371Y-138947400D01*
X125026752Y-139042638D01*
X124979133Y-139090257D01*
X124883895Y-139137876D01*
X124788657Y-139137876D01*
X124693419Y-139090257D01*
X124645800Y-139042638D01*
X124598180Y-138947400D01*
X124598180Y-138709304D01*
X124645800Y-138566447D01*
X125502942Y-137566447D02*
X125550561Y-137614066D01*
X125598180Y-137756923D01*
X125598180Y-137852161D01*
X125550561Y-137995019D01*
X125455323Y-138090257D01*
X125360085Y-138137876D01*
X125169609Y-138185495D01*
X125026752Y-138185495D01*
X124836276Y-138137876D01*
X124741038Y-138090257D01*
X124645800Y-137995019D01*
X124598180Y-137852161D01*
X124598180Y-137756923D01*
X124645800Y-137614066D01*
X124693419Y-137566447D01*
X125598180Y-136661685D02*
X125598180Y-137137876D01*
X124598180Y-137137876D01*
X122807361Y-139339485D02*
X122854980Y-139196628D01*
X122854980Y-138958533D01*
X122807361Y-138863295D01*
X122759742Y-138815676D01*
X122664504Y-138768057D01*
X122569266Y-138768057D01*
X122474028Y-138815676D01*
X122426409Y-138863295D01*
X122378790Y-138958533D01*
X122331171Y-139149009D01*
X122283552Y-139244247D01*
X122235933Y-139291866D01*
X122140695Y-139339485D01*
X122045457Y-139339485D01*
X121950219Y-139291866D01*
X121902600Y-139244247D01*
X121854980Y-139149009D01*
X121854980Y-138910914D01*
X121902600Y-138768057D01*
X122854980Y-138339485D02*
X121854980Y-138339485D01*
X121854980Y-138101390D01*
X121902600Y-137958533D01*
X121997838Y-137863295D01*
X122093076Y-137815676D01*
X122283552Y-137768057D01*
X122426409Y-137768057D01*
X122616885Y-137815676D01*
X122712123Y-137863295D01*
X122807361Y-137958533D01*
X122854980Y-138101390D01*
X122854980Y-138339485D01*
X122569266Y-137387104D02*
X122569266Y-136910914D01*
X122854980Y-137482342D02*
X121854980Y-137149009D01*
X122854980Y-136815676D01*
X118459523Y-129627380D02*
X119030952Y-129627380D01*
X118745238Y-130627380D02*
X118745238Y-129627380D01*
X119745238Y-130579761D02*
X119650000Y-130627380D01*
X119459523Y-130627380D01*
X119364285Y-130579761D01*
X119316666Y-130484523D01*
X119316666Y-130103571D01*
X119364285Y-130008333D01*
X119459523Y-129960714D01*
X119650000Y-129960714D01*
X119745238Y-130008333D01*
X119792857Y-130103571D01*
X119792857Y-130198809D01*
X119316666Y-130294047D01*
X120078571Y-129960714D02*
X120459523Y-129960714D01*
X120221428Y-129627380D02*
X120221428Y-130484523D01*
X120269047Y-130579761D01*
X120364285Y-130627380D01*
X120459523Y-130627380D01*
X120792857Y-130627380D02*
X120792857Y-129627380D01*
X121221428Y-130627380D02*
X121221428Y-130103571D01*
X121173809Y-130008333D01*
X121078571Y-129960714D01*
X120935714Y-129960714D01*
X120840476Y-130008333D01*
X120792857Y-130055952D01*
X122078571Y-130579761D02*
X121983333Y-130627380D01*
X121792857Y-130627380D01*
X121697619Y-130579761D01*
X121650000Y-130484523D01*
X121650000Y-130103571D01*
X121697619Y-130008333D01*
X121792857Y-129960714D01*
X121983333Y-129960714D01*
X122078571Y-130008333D01*
X122126190Y-130103571D01*
X122126190Y-130198809D01*
X121650000Y-130294047D01*
X122554761Y-130627380D02*
X122554761Y-129960714D01*
X122554761Y-130151190D02*
X122602380Y-130055952D01*
X122650000Y-130008333D01*
X122745238Y-129960714D01*
X122840476Y-129960714D01*
X89503571Y-149756761D02*
X89646428Y-149804380D01*
X89884523Y-149804380D01*
X89979761Y-149756761D01*
X90027380Y-149709142D01*
X90075000Y-149613904D01*
X90075000Y-149518666D01*
X90027380Y-149423428D01*
X89979761Y-149375809D01*
X89884523Y-149328190D01*
X89694047Y-149280571D01*
X89598809Y-149232952D01*
X89551190Y-149185333D01*
X89503571Y-149090095D01*
X89503571Y-148994857D01*
X89551190Y-148899619D01*
X89598809Y-148852000D01*
X89694047Y-148804380D01*
X89932142Y-148804380D01*
X90075000Y-148852000D01*
X91075000Y-149709142D02*
X91027380Y-149756761D01*
X90884523Y-149804380D01*
X90789285Y-149804380D01*
X90646428Y-149756761D01*
X90551190Y-149661523D01*
X90503571Y-149566285D01*
X90455952Y-149375809D01*
X90455952Y-149232952D01*
X90503571Y-149042476D01*
X90551190Y-148947238D01*
X90646428Y-148852000D01*
X90789285Y-148804380D01*
X90884523Y-148804380D01*
X91027380Y-148852000D01*
X91075000Y-148899619D01*
X91979761Y-149804380D02*
X91503571Y-149804380D01*
X91503571Y-148804380D01*
X92217857Y-148804380D02*
X92836904Y-148804380D01*
X92503571Y-149185333D01*
X92646428Y-149185333D01*
X92741666Y-149232952D01*
X92789285Y-149280571D01*
X92836904Y-149375809D01*
X92836904Y-149613904D01*
X92789285Y-149709142D01*
X92741666Y-149756761D01*
X92646428Y-149804380D01*
X92360714Y-149804380D01*
X92265476Y-149756761D01*
X92217857Y-149709142D01*
X93122619Y-148804380D02*
X93455952Y-149804380D01*
X93789285Y-148804380D01*
X94027380Y-148804380D02*
X94646428Y-148804380D01*
X94313095Y-149185333D01*
X94455952Y-149185333D01*
X94551190Y-149232952D01*
X94598809Y-149280571D01*
X94646428Y-149375809D01*
X94646428Y-149613904D01*
X94598809Y-149709142D01*
X94551190Y-149756761D01*
X94455952Y-149804380D01*
X94170238Y-149804380D01*
X94075000Y-149756761D01*
X94027380Y-149709142D01*
X92583095Y-143518000D02*
X92487857Y-143470380D01*
X92345000Y-143470380D01*
X92202142Y-143518000D01*
X92106904Y-143613238D01*
X92059285Y-143708476D01*
X92011666Y-143898952D01*
X92011666Y-144041809D01*
X92059285Y-144232285D01*
X92106904Y-144327523D01*
X92202142Y-144422761D01*
X92345000Y-144470380D01*
X92440238Y-144470380D01*
X92583095Y-144422761D01*
X92630714Y-144375142D01*
X92630714Y-144041809D01*
X92440238Y-144041809D01*
X93059285Y-144470380D02*
X93059285Y-143470380D01*
X93630714Y-144470380D01*
X93630714Y-143470380D01*
X94106904Y-144470380D02*
X94106904Y-143470380D01*
X94345000Y-143470380D01*
X94487857Y-143518000D01*
X94583095Y-143613238D01*
X94630714Y-143708476D01*
X94678333Y-143898952D01*
X94678333Y-144041809D01*
X94630714Y-144232285D01*
X94583095Y-144327523D01*
X94487857Y-144422761D01*
X94345000Y-144470380D01*
X94106904Y-144470380D01*
X92360904Y-140930380D02*
X92979952Y-140930380D01*
X92646619Y-141311333D01*
X92789476Y-141311333D01*
X92884714Y-141358952D01*
X92932333Y-141406571D01*
X92979952Y-141501809D01*
X92979952Y-141739904D01*
X92932333Y-141835142D01*
X92884714Y-141882761D01*
X92789476Y-141930380D01*
X92503761Y-141930380D01*
X92408523Y-141882761D01*
X92360904Y-141835142D01*
X93265666Y-140930380D02*
X93599000Y-141930380D01*
X93932333Y-140930380D01*
X94170428Y-140930380D02*
X94789476Y-140930380D01*
X94456142Y-141311333D01*
X94599000Y-141311333D01*
X94694238Y-141358952D01*
X94741857Y-141406571D01*
X94789476Y-141501809D01*
X94789476Y-141739904D01*
X94741857Y-141835142D01*
X94694238Y-141882761D01*
X94599000Y-141930380D01*
X94313285Y-141930380D01*
X94218047Y-141882761D01*
X94170428Y-141835142D01*
X89479761Y-147216761D02*
X89622619Y-147264380D01*
X89860714Y-147264380D01*
X89955952Y-147216761D01*
X90003571Y-147169142D01*
X90051190Y-147073904D01*
X90051190Y-146978666D01*
X90003571Y-146883428D01*
X89955952Y-146835809D01*
X89860714Y-146788190D01*
X89670238Y-146740571D01*
X89575000Y-146692952D01*
X89527380Y-146645333D01*
X89479761Y-146550095D01*
X89479761Y-146454857D01*
X89527380Y-146359619D01*
X89575000Y-146312000D01*
X89670238Y-146264380D01*
X89908333Y-146264380D01*
X90051190Y-146312000D01*
X90479761Y-147264380D02*
X90479761Y-146264380D01*
X90717857Y-146264380D01*
X90860714Y-146312000D01*
X90955952Y-146407238D01*
X91003571Y-146502476D01*
X91051190Y-146692952D01*
X91051190Y-146835809D01*
X91003571Y-147026285D01*
X90955952Y-147121523D01*
X90860714Y-147216761D01*
X90717857Y-147264380D01*
X90479761Y-147264380D01*
X91432142Y-146978666D02*
X91908333Y-146978666D01*
X91336904Y-147264380D02*
X91670238Y-146264380D01*
X92003571Y-147264380D01*
X92241666Y-146264380D02*
X92860714Y-146264380D01*
X92527380Y-146645333D01*
X92670238Y-146645333D01*
X92765476Y-146692952D01*
X92813095Y-146740571D01*
X92860714Y-146835809D01*
X92860714Y-147073904D01*
X92813095Y-147169142D01*
X92765476Y-147216761D01*
X92670238Y-147264380D01*
X92384523Y-147264380D01*
X92289285Y-147216761D01*
X92241666Y-147169142D01*
X93146428Y-146264380D02*
X93479761Y-147264380D01*
X93813095Y-146264380D01*
X94051190Y-146264380D02*
X94670238Y-146264380D01*
X94336904Y-146645333D01*
X94479761Y-146645333D01*
X94575000Y-146692952D01*
X94622619Y-146740571D01*
X94670238Y-146835809D01*
X94670238Y-147073904D01*
X94622619Y-147169142D01*
X94575000Y-147216761D01*
X94479761Y-147264380D01*
X94194047Y-147264380D01*
X94098809Y-147216761D01*
X94051190Y-147169142D01*
X330708095Y-100465000D02*
X330612857Y-100417380D01*
X330470000Y-100417380D01*
X330327142Y-100465000D01*
X330231904Y-100560238D01*
X330184285Y-100655476D01*
X330136666Y-100845952D01*
X330136666Y-100988809D01*
X330184285Y-101179285D01*
X330231904Y-101274523D01*
X330327142Y-101369761D01*
X330470000Y-101417380D01*
X330565238Y-101417380D01*
X330708095Y-101369761D01*
X330755714Y-101322142D01*
X330755714Y-100988809D01*
X330565238Y-100988809D01*
X331184285Y-101417380D02*
X331184285Y-100417380D01*
X331755714Y-101417380D01*
X331755714Y-100417380D01*
X332231904Y-101417380D02*
X332231904Y-100417380D01*
X332470000Y-100417380D01*
X332612857Y-100465000D01*
X332708095Y-100560238D01*
X332755714Y-100655476D01*
X332803333Y-100845952D01*
X332803333Y-100988809D01*
X332755714Y-101179285D01*
X332708095Y-101274523D01*
X332612857Y-101369761D01*
X332470000Y-101417380D01*
X332231904Y-101417380D01*
X330374761Y-118562380D02*
X329803333Y-118562380D01*
X330089047Y-118562380D02*
X330089047Y-117562380D01*
X329993809Y-117705238D01*
X329898571Y-117800476D01*
X329803333Y-117848095D01*
X331231904Y-117895714D02*
X331231904Y-118562380D01*
X330993809Y-117514761D02*
X330755714Y-118229047D01*
X331374761Y-118229047D01*
X331612857Y-117562380D02*
X331946190Y-118562380D01*
X332279523Y-117562380D01*
X332755714Y-117990952D02*
X332660476Y-117943333D01*
X332612857Y-117895714D01*
X332565238Y-117800476D01*
X332565238Y-117752857D01*
X332612857Y-117657619D01*
X332660476Y-117610000D01*
X332755714Y-117562380D01*
X332946190Y-117562380D01*
X333041428Y-117610000D01*
X333089047Y-117657619D01*
X333136666Y-117752857D01*
X333136666Y-117800476D01*
X333089047Y-117895714D01*
X333041428Y-117943333D01*
X332946190Y-117990952D01*
X332755714Y-117990952D01*
X332660476Y-118038571D01*
X332612857Y-118086190D01*
X332565238Y-118181428D01*
X332565238Y-118371904D01*
X332612857Y-118467142D01*
X332660476Y-118514761D01*
X332755714Y-118562380D01*
X332946190Y-118562380D01*
X333041428Y-118514761D01*
X333089047Y-118467142D01*
X333136666Y-118371904D01*
X333136666Y-118181428D01*
X333089047Y-118086190D01*
X333041428Y-118038571D01*
X332946190Y-117990952D01*
X138882380Y-61409270D02*
X138882380Y-61980699D01*
X138882380Y-61694985D02*
X137882380Y-61569985D01*
X138025238Y-61683080D01*
X138120476Y-61790223D01*
X138168095Y-61891413D01*
X318008095Y-52205000D02*
X317912857Y-52157380D01*
X317770000Y-52157380D01*
X317627142Y-52205000D01*
X317531904Y-52300238D01*
X317484285Y-52395476D01*
X317436666Y-52585952D01*
X317436666Y-52728809D01*
X317484285Y-52919285D01*
X317531904Y-53014523D01*
X317627142Y-53109761D01*
X317770000Y-53157380D01*
X317865238Y-53157380D01*
X318008095Y-53109761D01*
X318055714Y-53062142D01*
X318055714Y-52728809D01*
X317865238Y-52728809D01*
X318484285Y-53157380D02*
X318484285Y-52157380D01*
X319055714Y-53157380D01*
X319055714Y-52157380D01*
X319531904Y-53157380D02*
X319531904Y-52157380D01*
X319770000Y-52157380D01*
X319912857Y-52205000D01*
X320008095Y-52300238D01*
X320055714Y-52395476D01*
X320103333Y-52585952D01*
X320103333Y-52728809D01*
X320055714Y-52919285D01*
X320008095Y-53014523D01*
X319912857Y-53109761D01*
X319770000Y-53157380D01*
X319531904Y-53157380D01*
X307578333Y-52633571D02*
X307911666Y-52633571D01*
X308054523Y-53157380D02*
X307578333Y-53157380D01*
X307578333Y-52157380D01*
X308054523Y-52157380D01*
X308435476Y-53109761D02*
X308578333Y-53157380D01*
X308816428Y-53157380D01*
X308911666Y-53109761D01*
X308959285Y-53062142D01*
X309006904Y-52966904D01*
X309006904Y-52871666D01*
X308959285Y-52776428D01*
X308911666Y-52728809D01*
X308816428Y-52681190D01*
X308625952Y-52633571D01*
X308530714Y-52585952D01*
X308483095Y-52538333D01*
X308435476Y-52443095D01*
X308435476Y-52347857D01*
X308483095Y-52252619D01*
X308530714Y-52205000D01*
X308625952Y-52157380D01*
X308864047Y-52157380D01*
X309006904Y-52205000D01*
X310006904Y-53062142D02*
X309959285Y-53109761D01*
X309816428Y-53157380D01*
X309721190Y-53157380D01*
X309578333Y-53109761D01*
X309483095Y-53014523D01*
X309435476Y-52919285D01*
X309387857Y-52728809D01*
X309387857Y-52585952D01*
X309435476Y-52395476D01*
X309483095Y-52300238D01*
X309578333Y-52205000D01*
X309721190Y-52157380D01*
X309816428Y-52157380D01*
X309959285Y-52205000D01*
X310006904Y-52252619D01*
X310864047Y-52157380D02*
X310673571Y-52157380D01*
X310578333Y-52205000D01*
X310530714Y-52252619D01*
X310435476Y-52395476D01*
X310387857Y-52585952D01*
X310387857Y-52966904D01*
X310435476Y-53062142D01*
X310483095Y-53109761D01*
X310578333Y-53157380D01*
X310768809Y-53157380D01*
X310864047Y-53109761D01*
X310911666Y-53062142D01*
X310959285Y-52966904D01*
X310959285Y-52728809D01*
X310911666Y-52633571D01*
X310864047Y-52585952D01*
X310768809Y-52538333D01*
X310578333Y-52538333D01*
X310483095Y-52585952D01*
X310435476Y-52633571D01*
X310387857Y-52728809D01*
X298958095Y-52205000D02*
X298862857Y-52157380D01*
X298720000Y-52157380D01*
X298577142Y-52205000D01*
X298481904Y-52300238D01*
X298434285Y-52395476D01*
X298386666Y-52585952D01*
X298386666Y-52728809D01*
X298434285Y-52919285D01*
X298481904Y-53014523D01*
X298577142Y-53109761D01*
X298720000Y-53157380D01*
X298815238Y-53157380D01*
X298958095Y-53109761D01*
X299005714Y-53062142D01*
X299005714Y-52728809D01*
X298815238Y-52728809D01*
X299434285Y-53157380D02*
X299434285Y-52157380D01*
X300005714Y-53157380D01*
X300005714Y-52157380D01*
X300481904Y-53157380D02*
X300481904Y-52157380D01*
X300720000Y-52157380D01*
X300862857Y-52205000D01*
X300958095Y-52300238D01*
X301005714Y-52395476D01*
X301053333Y-52585952D01*
X301053333Y-52728809D01*
X301005714Y-52919285D01*
X300958095Y-53014523D01*
X300862857Y-53109761D01*
X300720000Y-53157380D01*
X300481904Y-53157380D01*
X288528333Y-52633571D02*
X288861666Y-52633571D01*
X289004523Y-53157380D02*
X288528333Y-53157380D01*
X288528333Y-52157380D01*
X289004523Y-52157380D01*
X289385476Y-53109761D02*
X289528333Y-53157380D01*
X289766428Y-53157380D01*
X289861666Y-53109761D01*
X289909285Y-53062142D01*
X289956904Y-52966904D01*
X289956904Y-52871666D01*
X289909285Y-52776428D01*
X289861666Y-52728809D01*
X289766428Y-52681190D01*
X289575952Y-52633571D01*
X289480714Y-52585952D01*
X289433095Y-52538333D01*
X289385476Y-52443095D01*
X289385476Y-52347857D01*
X289433095Y-52252619D01*
X289480714Y-52205000D01*
X289575952Y-52157380D01*
X289814047Y-52157380D01*
X289956904Y-52205000D01*
X290956904Y-53062142D02*
X290909285Y-53109761D01*
X290766428Y-53157380D01*
X290671190Y-53157380D01*
X290528333Y-53109761D01*
X290433095Y-53014523D01*
X290385476Y-52919285D01*
X290337857Y-52728809D01*
X290337857Y-52585952D01*
X290385476Y-52395476D01*
X290433095Y-52300238D01*
X290528333Y-52205000D01*
X290671190Y-52157380D01*
X290766428Y-52157380D01*
X290909285Y-52205000D01*
X290956904Y-52252619D01*
X291861666Y-52157380D02*
X291385476Y-52157380D01*
X291337857Y-52633571D01*
X291385476Y-52585952D01*
X291480714Y-52538333D01*
X291718809Y-52538333D01*
X291814047Y-52585952D01*
X291861666Y-52633571D01*
X291909285Y-52728809D01*
X291909285Y-52966904D01*
X291861666Y-53062142D01*
X291814047Y-53109761D01*
X291718809Y-53157380D01*
X291480714Y-53157380D01*
X291385476Y-53109761D01*
X291337857Y-53062142D01*
X279908095Y-52205000D02*
X279812857Y-52157380D01*
X279670000Y-52157380D01*
X279527142Y-52205000D01*
X279431904Y-52300238D01*
X279384285Y-52395476D01*
X279336666Y-52585952D01*
X279336666Y-52728809D01*
X279384285Y-52919285D01*
X279431904Y-53014523D01*
X279527142Y-53109761D01*
X279670000Y-53157380D01*
X279765238Y-53157380D01*
X279908095Y-53109761D01*
X279955714Y-53062142D01*
X279955714Y-52728809D01*
X279765238Y-52728809D01*
X280384285Y-53157380D02*
X280384285Y-52157380D01*
X280955714Y-53157380D01*
X280955714Y-52157380D01*
X281431904Y-53157380D02*
X281431904Y-52157380D01*
X281670000Y-52157380D01*
X281812857Y-52205000D01*
X281908095Y-52300238D01*
X281955714Y-52395476D01*
X282003333Y-52585952D01*
X282003333Y-52728809D01*
X281955714Y-52919285D01*
X281908095Y-53014523D01*
X281812857Y-53109761D01*
X281670000Y-53157380D01*
X281431904Y-53157380D01*
X269478333Y-52633571D02*
X269811666Y-52633571D01*
X269954523Y-53157380D02*
X269478333Y-53157380D01*
X269478333Y-52157380D01*
X269954523Y-52157380D01*
X270335476Y-53109761D02*
X270478333Y-53157380D01*
X270716428Y-53157380D01*
X270811666Y-53109761D01*
X270859285Y-53062142D01*
X270906904Y-52966904D01*
X270906904Y-52871666D01*
X270859285Y-52776428D01*
X270811666Y-52728809D01*
X270716428Y-52681190D01*
X270525952Y-52633571D01*
X270430714Y-52585952D01*
X270383095Y-52538333D01*
X270335476Y-52443095D01*
X270335476Y-52347857D01*
X270383095Y-52252619D01*
X270430714Y-52205000D01*
X270525952Y-52157380D01*
X270764047Y-52157380D01*
X270906904Y-52205000D01*
X271906904Y-53062142D02*
X271859285Y-53109761D01*
X271716428Y-53157380D01*
X271621190Y-53157380D01*
X271478333Y-53109761D01*
X271383095Y-53014523D01*
X271335476Y-52919285D01*
X271287857Y-52728809D01*
X271287857Y-52585952D01*
X271335476Y-52395476D01*
X271383095Y-52300238D01*
X271478333Y-52205000D01*
X271621190Y-52157380D01*
X271716428Y-52157380D01*
X271859285Y-52205000D01*
X271906904Y-52252619D01*
X272764047Y-52490714D02*
X272764047Y-53157380D01*
X272525952Y-52109761D02*
X272287857Y-52824047D01*
X272906904Y-52824047D01*
X260858095Y-52205000D02*
X260762857Y-52157380D01*
X260620000Y-52157380D01*
X260477142Y-52205000D01*
X260381904Y-52300238D01*
X260334285Y-52395476D01*
X260286666Y-52585952D01*
X260286666Y-52728809D01*
X260334285Y-52919285D01*
X260381904Y-53014523D01*
X260477142Y-53109761D01*
X260620000Y-53157380D01*
X260715238Y-53157380D01*
X260858095Y-53109761D01*
X260905714Y-53062142D01*
X260905714Y-52728809D01*
X260715238Y-52728809D01*
X261334285Y-53157380D02*
X261334285Y-52157380D01*
X261905714Y-53157380D01*
X261905714Y-52157380D01*
X262381904Y-53157380D02*
X262381904Y-52157380D01*
X262620000Y-52157380D01*
X262762857Y-52205000D01*
X262858095Y-52300238D01*
X262905714Y-52395476D01*
X262953333Y-52585952D01*
X262953333Y-52728809D01*
X262905714Y-52919285D01*
X262858095Y-53014523D01*
X262762857Y-53109761D01*
X262620000Y-53157380D01*
X262381904Y-53157380D01*
X250428333Y-52633571D02*
X250761666Y-52633571D01*
X250904523Y-53157380D02*
X250428333Y-53157380D01*
X250428333Y-52157380D01*
X250904523Y-52157380D01*
X251285476Y-53109761D02*
X251428333Y-53157380D01*
X251666428Y-53157380D01*
X251761666Y-53109761D01*
X251809285Y-53062142D01*
X251856904Y-52966904D01*
X251856904Y-52871666D01*
X251809285Y-52776428D01*
X251761666Y-52728809D01*
X251666428Y-52681190D01*
X251475952Y-52633571D01*
X251380714Y-52585952D01*
X251333095Y-52538333D01*
X251285476Y-52443095D01*
X251285476Y-52347857D01*
X251333095Y-52252619D01*
X251380714Y-52205000D01*
X251475952Y-52157380D01*
X251714047Y-52157380D01*
X251856904Y-52205000D01*
X252856904Y-53062142D02*
X252809285Y-53109761D01*
X252666428Y-53157380D01*
X252571190Y-53157380D01*
X252428333Y-53109761D01*
X252333095Y-53014523D01*
X252285476Y-52919285D01*
X252237857Y-52728809D01*
X252237857Y-52585952D01*
X252285476Y-52395476D01*
X252333095Y-52300238D01*
X252428333Y-52205000D01*
X252571190Y-52157380D01*
X252666428Y-52157380D01*
X252809285Y-52205000D01*
X252856904Y-52252619D01*
X253190238Y-52157380D02*
X253809285Y-52157380D01*
X253475952Y-52538333D01*
X253618809Y-52538333D01*
X253714047Y-52585952D01*
X253761666Y-52633571D01*
X253809285Y-52728809D01*
X253809285Y-52966904D01*
X253761666Y-53062142D01*
X253714047Y-53109761D01*
X253618809Y-53157380D01*
X253333095Y-53157380D01*
X253237857Y-53109761D01*
X253190238Y-53062142D01*
X241808095Y-52205000D02*
X241712857Y-52157380D01*
X241570000Y-52157380D01*
X241427142Y-52205000D01*
X241331904Y-52300238D01*
X241284285Y-52395476D01*
X241236666Y-52585952D01*
X241236666Y-52728809D01*
X241284285Y-52919285D01*
X241331904Y-53014523D01*
X241427142Y-53109761D01*
X241570000Y-53157380D01*
X241665238Y-53157380D01*
X241808095Y-53109761D01*
X241855714Y-53062142D01*
X241855714Y-52728809D01*
X241665238Y-52728809D01*
X242284285Y-53157380D02*
X242284285Y-52157380D01*
X242855714Y-53157380D01*
X242855714Y-52157380D01*
X243331904Y-53157380D02*
X243331904Y-52157380D01*
X243570000Y-52157380D01*
X243712857Y-52205000D01*
X243808095Y-52300238D01*
X243855714Y-52395476D01*
X243903333Y-52585952D01*
X243903333Y-52728809D01*
X243855714Y-52919285D01*
X243808095Y-53014523D01*
X243712857Y-53109761D01*
X243570000Y-53157380D01*
X243331904Y-53157380D01*
X231378333Y-52633571D02*
X231711666Y-52633571D01*
X231854523Y-53157380D02*
X231378333Y-53157380D01*
X231378333Y-52157380D01*
X231854523Y-52157380D01*
X232235476Y-53109761D02*
X232378333Y-53157380D01*
X232616428Y-53157380D01*
X232711666Y-53109761D01*
X232759285Y-53062142D01*
X232806904Y-52966904D01*
X232806904Y-52871666D01*
X232759285Y-52776428D01*
X232711666Y-52728809D01*
X232616428Y-52681190D01*
X232425952Y-52633571D01*
X232330714Y-52585952D01*
X232283095Y-52538333D01*
X232235476Y-52443095D01*
X232235476Y-52347857D01*
X232283095Y-52252619D01*
X232330714Y-52205000D01*
X232425952Y-52157380D01*
X232664047Y-52157380D01*
X232806904Y-52205000D01*
X233806904Y-53062142D02*
X233759285Y-53109761D01*
X233616428Y-53157380D01*
X233521190Y-53157380D01*
X233378333Y-53109761D01*
X233283095Y-53014523D01*
X233235476Y-52919285D01*
X233187857Y-52728809D01*
X233187857Y-52585952D01*
X233235476Y-52395476D01*
X233283095Y-52300238D01*
X233378333Y-52205000D01*
X233521190Y-52157380D01*
X233616428Y-52157380D01*
X233759285Y-52205000D01*
X233806904Y-52252619D01*
X234187857Y-52252619D02*
X234235476Y-52205000D01*
X234330714Y-52157380D01*
X234568809Y-52157380D01*
X234664047Y-52205000D01*
X234711666Y-52252619D01*
X234759285Y-52347857D01*
X234759285Y-52443095D01*
X234711666Y-52585952D01*
X234140238Y-53157380D01*
X234759285Y-53157380D01*
X222758095Y-52205000D02*
X222662857Y-52157380D01*
X222520000Y-52157380D01*
X222377142Y-52205000D01*
X222281904Y-52300238D01*
X222234285Y-52395476D01*
X222186666Y-52585952D01*
X222186666Y-52728809D01*
X222234285Y-52919285D01*
X222281904Y-53014523D01*
X222377142Y-53109761D01*
X222520000Y-53157380D01*
X222615238Y-53157380D01*
X222758095Y-53109761D01*
X222805714Y-53062142D01*
X222805714Y-52728809D01*
X222615238Y-52728809D01*
X223234285Y-53157380D02*
X223234285Y-52157380D01*
X223805714Y-53157380D01*
X223805714Y-52157380D01*
X224281904Y-53157380D02*
X224281904Y-52157380D01*
X224520000Y-52157380D01*
X224662857Y-52205000D01*
X224758095Y-52300238D01*
X224805714Y-52395476D01*
X224853333Y-52585952D01*
X224853333Y-52728809D01*
X224805714Y-52919285D01*
X224758095Y-53014523D01*
X224662857Y-53109761D01*
X224520000Y-53157380D01*
X224281904Y-53157380D01*
X212328333Y-52633571D02*
X212661666Y-52633571D01*
X212804523Y-53157380D02*
X212328333Y-53157380D01*
X212328333Y-52157380D01*
X212804523Y-52157380D01*
X213185476Y-53109761D02*
X213328333Y-53157380D01*
X213566428Y-53157380D01*
X213661666Y-53109761D01*
X213709285Y-53062142D01*
X213756904Y-52966904D01*
X213756904Y-52871666D01*
X213709285Y-52776428D01*
X213661666Y-52728809D01*
X213566428Y-52681190D01*
X213375952Y-52633571D01*
X213280714Y-52585952D01*
X213233095Y-52538333D01*
X213185476Y-52443095D01*
X213185476Y-52347857D01*
X213233095Y-52252619D01*
X213280714Y-52205000D01*
X213375952Y-52157380D01*
X213614047Y-52157380D01*
X213756904Y-52205000D01*
X214756904Y-53062142D02*
X214709285Y-53109761D01*
X214566428Y-53157380D01*
X214471190Y-53157380D01*
X214328333Y-53109761D01*
X214233095Y-53014523D01*
X214185476Y-52919285D01*
X214137857Y-52728809D01*
X214137857Y-52585952D01*
X214185476Y-52395476D01*
X214233095Y-52300238D01*
X214328333Y-52205000D01*
X214471190Y-52157380D01*
X214566428Y-52157380D01*
X214709285Y-52205000D01*
X214756904Y-52252619D01*
X215709285Y-53157380D02*
X215137857Y-53157380D01*
X215423571Y-53157380D02*
X215423571Y-52157380D01*
X215328333Y-52300238D01*
X215233095Y-52395476D01*
X215137857Y-52443095D01*
D11*
X170815000Y-139065000D02*
X172720000Y-140970000D01*
X170815000Y-139065000D02*
X168910000Y-140970000D01*
X170815000Y-147955000D02*
X170815000Y-139065000D01*
X154940000Y-138430000D02*
X156845000Y-140335000D01*
X154940000Y-138430000D02*
X153035000Y-140335000D01*
X154940000Y-147320000D02*
X154940000Y-138430000D01*
D10*
X82665083Y-149492601D02*
X82807940Y-149540220D01*
X83046036Y-149540220D01*
X83141274Y-149492601D01*
X83188893Y-149444982D01*
X83236512Y-149349744D01*
X83236512Y-149254506D01*
X83188893Y-149159268D01*
X83141274Y-149111649D01*
X83046036Y-149064030D01*
X82855560Y-149016411D01*
X82760321Y-148968792D01*
X82712702Y-148921173D01*
X82665083Y-148825935D01*
X82665083Y-148730697D01*
X82712702Y-148635459D01*
X82760321Y-148587840D01*
X82855560Y-148540220D01*
X83093655Y-148540220D01*
X83236512Y-148587840D01*
X84236512Y-149444982D02*
X84188893Y-149492601D01*
X84046036Y-149540220D01*
X83950798Y-149540220D01*
X83807940Y-149492601D01*
X83712702Y-149397363D01*
X83665083Y-149302125D01*
X83617464Y-149111649D01*
X83617464Y-148968792D01*
X83665083Y-148778316D01*
X83712702Y-148683078D01*
X83807940Y-148587840D01*
X83950798Y-148540220D01*
X84046036Y-148540220D01*
X84188893Y-148587840D01*
X84236512Y-148635459D01*
X85141274Y-149540220D02*
X84665083Y-149540220D01*
X84665083Y-148540220D01*
X82681914Y-146927201D02*
X82824771Y-146974820D01*
X83062866Y-146974820D01*
X83158104Y-146927201D01*
X83205723Y-146879582D01*
X83253342Y-146784344D01*
X83253342Y-146689106D01*
X83205723Y-146593868D01*
X83158104Y-146546249D01*
X83062866Y-146498630D01*
X82872390Y-146451011D01*
X82777152Y-146403392D01*
X82729533Y-146355773D01*
X82681914Y-146260535D01*
X82681914Y-146165297D01*
X82729533Y-146070059D01*
X82777152Y-146022440D01*
X82872390Y-145974820D01*
X83110485Y-145974820D01*
X83253342Y-146022440D01*
X83681914Y-146974820D02*
X83681914Y-145974820D01*
X83920009Y-145974820D01*
X84062866Y-146022440D01*
X84158104Y-146117678D01*
X84205723Y-146212916D01*
X84253342Y-146403392D01*
X84253342Y-146546249D01*
X84205723Y-146736725D01*
X84158104Y-146831963D01*
X84062866Y-146927201D01*
X83920009Y-146974820D01*
X83681914Y-146974820D01*
X84634295Y-146689106D02*
X85110485Y-146689106D01*
X84539057Y-146974820D02*
X84872390Y-145974820D01*
X85205723Y-146974820D01*
X83053015Y-143512920D02*
X82957777Y-143465300D01*
X82814920Y-143465300D01*
X82672062Y-143512920D01*
X82576824Y-143608158D01*
X82529205Y-143703396D01*
X82481586Y-143893872D01*
X82481586Y-144036729D01*
X82529205Y-144227205D01*
X82576824Y-144322443D01*
X82672062Y-144417681D01*
X82814920Y-144465300D01*
X82910158Y-144465300D01*
X83053015Y-144417681D01*
X83100634Y-144370062D01*
X83100634Y-144036729D01*
X82910158Y-144036729D01*
X83529205Y-144465300D02*
X83529205Y-143465300D01*
X84100634Y-144465300D01*
X84100634Y-143465300D01*
X84576824Y-144465300D02*
X84576824Y-143465300D01*
X84814920Y-143465300D01*
X84957777Y-143512920D01*
X85053015Y-143608158D01*
X85100634Y-143703396D01*
X85148253Y-143893872D01*
X85148253Y-144036729D01*
X85100634Y-144227205D01*
X85053015Y-144322443D01*
X84957777Y-144417681D01*
X84814920Y-144465300D01*
X84576824Y-144465300D01*
X83693095Y-140930380D02*
X84312142Y-140930380D01*
X83978809Y-141311333D01*
X84121666Y-141311333D01*
X84216904Y-141358952D01*
X84264523Y-141406571D01*
X84312142Y-141501809D01*
X84312142Y-141739904D01*
X84264523Y-141835142D01*
X84216904Y-141882761D01*
X84121666Y-141930380D01*
X83835952Y-141930380D01*
X83740714Y-141882761D01*
X83693095Y-141835142D01*
X84597857Y-140930380D02*
X84931190Y-141930380D01*
X85264523Y-140930380D01*
X110045523Y-141184380D02*
X109569333Y-141184380D01*
X109521714Y-141660571D01*
X109569333Y-141612952D01*
X109664571Y-141565333D01*
X109902666Y-141565333D01*
X109997904Y-141612952D01*
X110045523Y-141660571D01*
X110093142Y-141755809D01*
X110093142Y-141993904D01*
X110045523Y-142089142D01*
X109997904Y-142136761D01*
X109902666Y-142184380D01*
X109664571Y-142184380D01*
X109569333Y-142136761D01*
X109521714Y-142089142D01*
X110378857Y-141184380D02*
X110712190Y-142184380D01*
X111045523Y-141184380D01*
X109474095Y-143391000D02*
X109378857Y-143343380D01*
X109236000Y-143343380D01*
X109093142Y-143391000D01*
X108997904Y-143486238D01*
X108950285Y-143581476D01*
X108902666Y-143771952D01*
X108902666Y-143914809D01*
X108950285Y-144105285D01*
X108997904Y-144200523D01*
X109093142Y-144295761D01*
X109236000Y-144343380D01*
X109331238Y-144343380D01*
X109474095Y-144295761D01*
X109521714Y-144248142D01*
X109521714Y-143914809D01*
X109331238Y-143914809D01*
X109950285Y-144343380D02*
X109950285Y-143343380D01*
X110521714Y-144343380D01*
X110521714Y-143343380D01*
X110997904Y-144343380D02*
X110997904Y-143343380D01*
X111236000Y-143343380D01*
X111378857Y-143391000D01*
X111474095Y-143486238D01*
X111521714Y-143581476D01*
X111569333Y-143771952D01*
X111569333Y-143914809D01*
X111521714Y-144105285D01*
X111474095Y-144200523D01*
X111378857Y-144295761D01*
X111236000Y-144343380D01*
X110997904Y-144343380D01*
X109021714Y-147470761D02*
X109164571Y-147518380D01*
X109402666Y-147518380D01*
X109497904Y-147470761D01*
X109545523Y-147423142D01*
X109593142Y-147327904D01*
X109593142Y-147232666D01*
X109545523Y-147137428D01*
X109497904Y-147089809D01*
X109402666Y-147042190D01*
X109212190Y-146994571D01*
X109116952Y-146946952D01*
X109069333Y-146899333D01*
X109021714Y-146804095D01*
X109021714Y-146708857D01*
X109069333Y-146613619D01*
X109116952Y-146566000D01*
X109212190Y-146518380D01*
X109450285Y-146518380D01*
X109593142Y-146566000D01*
X110021714Y-147518380D02*
X110021714Y-146518380D01*
X110259809Y-146518380D01*
X110402666Y-146566000D01*
X110497904Y-146661238D01*
X110545523Y-146756476D01*
X110593142Y-146946952D01*
X110593142Y-147089809D01*
X110545523Y-147280285D01*
X110497904Y-147375523D01*
X110402666Y-147470761D01*
X110259809Y-147518380D01*
X110021714Y-147518380D01*
X110974095Y-147232666D02*
X111450285Y-147232666D01*
X110878857Y-147518380D02*
X111212190Y-146518380D01*
X111545523Y-147518380D01*
X109045523Y-149756761D02*
X109188380Y-149804380D01*
X109426476Y-149804380D01*
X109521714Y-149756761D01*
X109569333Y-149709142D01*
X109616952Y-149613904D01*
X109616952Y-149518666D01*
X109569333Y-149423428D01*
X109521714Y-149375809D01*
X109426476Y-149328190D01*
X109236000Y-149280571D01*
X109140761Y-149232952D01*
X109093142Y-149185333D01*
X109045523Y-149090095D01*
X109045523Y-148994857D01*
X109093142Y-148899619D01*
X109140761Y-148852000D01*
X109236000Y-148804380D01*
X109474095Y-148804380D01*
X109616952Y-148852000D01*
X110616952Y-149709142D02*
X110569333Y-149756761D01*
X110426476Y-149804380D01*
X110331238Y-149804380D01*
X110188380Y-149756761D01*
X110093142Y-149661523D01*
X110045523Y-149566285D01*
X109997904Y-149375809D01*
X109997904Y-149232952D01*
X110045523Y-149042476D01*
X110093142Y-148947238D01*
X110188380Y-148852000D01*
X110331238Y-148804380D01*
X110426476Y-148804380D01*
X110569333Y-148852000D01*
X110616952Y-148899619D01*
X111521714Y-149804380D02*
X111045523Y-149804380D01*
X111045523Y-148804380D01*
X145661142Y-54110000D02*
X145565904Y-54062380D01*
X145423047Y-54062380D01*
X145280190Y-54110000D01*
X145184952Y-54205238D01*
X145137333Y-54300476D01*
X145089714Y-54490952D01*
X145089714Y-54633809D01*
X145137333Y-54824285D01*
X145184952Y-54919523D01*
X145280190Y-55014761D01*
X145423047Y-55062380D01*
X145518285Y-55062380D01*
X145661142Y-55014761D01*
X145708761Y-54967142D01*
X145708761Y-54633809D01*
X145518285Y-54633809D01*
X146137333Y-54395714D02*
X146137333Y-55062380D01*
X146137333Y-54490952D02*
X146184952Y-54443333D01*
X146280190Y-54395714D01*
X146423047Y-54395714D01*
X146518285Y-54443333D01*
X146565904Y-54538571D01*
X146565904Y-55062380D01*
X147470666Y-55062380D02*
X147470666Y-54062380D01*
X147470666Y-55014761D02*
X147375428Y-55062380D01*
X147184952Y-55062380D01*
X147089714Y-55014761D01*
X147042095Y-54967142D01*
X146994476Y-54871904D01*
X146994476Y-54586190D01*
X147042095Y-54490952D01*
X147089714Y-54443333D01*
X147184952Y-54395714D01*
X147375428Y-54395714D01*
X147470666Y-54443333D01*
X140645190Y-64492142D02*
X140597571Y-64539761D01*
X140454714Y-64587380D01*
X140359476Y-64587380D01*
X140216619Y-64539761D01*
X140121380Y-64444523D01*
X140073761Y-64349285D01*
X140026142Y-64158809D01*
X140026142Y-64015952D01*
X140073761Y-63825476D01*
X140121380Y-63730238D01*
X140216619Y-63635000D01*
X140359476Y-63587380D01*
X140454714Y-63587380D01*
X140597571Y-63635000D01*
X140645190Y-63682619D01*
X141216619Y-64587380D02*
X141121380Y-64539761D01*
X141073761Y-64492142D01*
X141026142Y-64396904D01*
X141026142Y-64111190D01*
X141073761Y-64015952D01*
X141121380Y-63968333D01*
X141216619Y-63920714D01*
X141359476Y-63920714D01*
X141454714Y-63968333D01*
X141502333Y-64015952D01*
X141549952Y-64111190D01*
X141549952Y-64396904D01*
X141502333Y-64492142D01*
X141454714Y-64539761D01*
X141359476Y-64587380D01*
X141216619Y-64587380D01*
X141978523Y-63920714D02*
X141978523Y-64587380D01*
X141978523Y-64015952D02*
X142026142Y-63968333D01*
X142121380Y-63920714D01*
X142264238Y-63920714D01*
X142359476Y-63968333D01*
X142407095Y-64063571D01*
X142407095Y-64587380D01*
X142740428Y-63920714D02*
X143121380Y-63920714D01*
X142883285Y-63587380D02*
X142883285Y-64444523D01*
X142930904Y-64539761D01*
X143026142Y-64587380D01*
X143121380Y-64587380D01*
X143454714Y-64587380D02*
X143454714Y-63920714D01*
X143454714Y-64111190D02*
X143502333Y-64015952D01*
X143549952Y-63968333D01*
X143645190Y-63920714D01*
X143740428Y-63920714D01*
X144216619Y-64587380D02*
X144121380Y-64539761D01*
X144073761Y-64492142D01*
X144026142Y-64396904D01*
X144026142Y-64111190D01*
X144073761Y-64015952D01*
X144121380Y-63968333D01*
X144216619Y-63920714D01*
X144359476Y-63920714D01*
X144454714Y-63968333D01*
X144502333Y-64015952D01*
X144549952Y-64111190D01*
X144549952Y-64396904D01*
X144502333Y-64492142D01*
X144454714Y-64539761D01*
X144359476Y-64587380D01*
X144216619Y-64587380D01*
X145121380Y-64587380D02*
X145026142Y-64539761D01*
X144978523Y-64444523D01*
X144978523Y-63587380D01*
X146216619Y-64539761D02*
X146359476Y-64587380D01*
X146597571Y-64587380D01*
X146692809Y-64539761D01*
X146740428Y-64492142D01*
X146788047Y-64396904D01*
X146788047Y-64301666D01*
X146740428Y-64206428D01*
X146692809Y-64158809D01*
X146597571Y-64111190D01*
X146407095Y-64063571D01*
X146311857Y-64015952D01*
X146264238Y-63968333D01*
X146216619Y-63873095D01*
X146216619Y-63777857D01*
X146264238Y-63682619D01*
X146311857Y-63635000D01*
X146407095Y-63587380D01*
X146645190Y-63587380D01*
X146788047Y-63635000D01*
X147216619Y-64587380D02*
X147216619Y-63920714D01*
X147216619Y-63587380D02*
X147169000Y-63635000D01*
X147216619Y-63682619D01*
X147264238Y-63635000D01*
X147216619Y-63587380D01*
X147216619Y-63682619D01*
X148121380Y-63920714D02*
X148121380Y-64730238D01*
X148073761Y-64825476D01*
X148026142Y-64873095D01*
X147930904Y-64920714D01*
X147788047Y-64920714D01*
X147692809Y-64873095D01*
X148121380Y-64539761D02*
X148026142Y-64587380D01*
X147835666Y-64587380D01*
X147740428Y-64539761D01*
X147692809Y-64492142D01*
X147645190Y-64396904D01*
X147645190Y-64111190D01*
X147692809Y-64015952D01*
X147740428Y-63968333D01*
X147835666Y-63920714D01*
X148026142Y-63920714D01*
X148121380Y-63968333D01*
X148597571Y-63920714D02*
X148597571Y-64587380D01*
X148597571Y-64015952D02*
X148645190Y-63968333D01*
X148740428Y-63920714D01*
X148883285Y-63920714D01*
X148978523Y-63968333D01*
X149026142Y-64063571D01*
X149026142Y-64587380D01*
X149930904Y-64587380D02*
X149930904Y-64063571D01*
X149883285Y-63968333D01*
X149788047Y-63920714D01*
X149597571Y-63920714D01*
X149502333Y-63968333D01*
X149930904Y-64539761D02*
X149835666Y-64587380D01*
X149597571Y-64587380D01*
X149502333Y-64539761D01*
X149454714Y-64444523D01*
X149454714Y-64349285D01*
X149502333Y-64254047D01*
X149597571Y-64206428D01*
X149835666Y-64206428D01*
X149930904Y-64158809D01*
X150549952Y-64587380D02*
X150454714Y-64539761D01*
X150407095Y-64444523D01*
X150407095Y-63587380D01*
X150883285Y-64539761D02*
X150978523Y-64587380D01*
X151169000Y-64587380D01*
X151264238Y-64539761D01*
X151311857Y-64444523D01*
X151311857Y-64396904D01*
X151264238Y-64301666D01*
X151169000Y-64254047D01*
X151026142Y-64254047D01*
X150930904Y-64206428D01*
X150883285Y-64111190D01*
X150883285Y-64063571D01*
X150930904Y-63968333D01*
X151026142Y-63920714D01*
X151169000Y-63920714D01*
X151264238Y-63968333D01*
X151495523Y-132802380D02*
X151019333Y-132802380D01*
X150971714Y-133278571D01*
X151019333Y-133230952D01*
X151114571Y-133183333D01*
X151352666Y-133183333D01*
X151447904Y-133230952D01*
X151495523Y-133278571D01*
X151543142Y-133373809D01*
X151543142Y-133611904D01*
X151495523Y-133707142D01*
X151447904Y-133754761D01*
X151352666Y-133802380D01*
X151114571Y-133802380D01*
X151019333Y-133754761D01*
X150971714Y-133707142D01*
X151828857Y-132802380D02*
X152162190Y-133802380D01*
X152495523Y-132802380D01*
X153590761Y-133802380D02*
X153590761Y-132802380D01*
X153828857Y-132802380D01*
X153971714Y-132850000D01*
X154066952Y-132945238D01*
X154114571Y-133040476D01*
X154162190Y-133230952D01*
X154162190Y-133373809D01*
X154114571Y-133564285D01*
X154066952Y-133659523D01*
X153971714Y-133754761D01*
X153828857Y-133802380D01*
X153590761Y-133802380D01*
X155162190Y-133707142D02*
X155114571Y-133754761D01*
X154971714Y-133802380D01*
X154876476Y-133802380D01*
X154733619Y-133754761D01*
X154638380Y-133659523D01*
X154590761Y-133564285D01*
X154543142Y-133373809D01*
X154543142Y-133230952D01*
X154590761Y-133040476D01*
X154638380Y-132945238D01*
X154733619Y-132850000D01*
X154876476Y-132802380D01*
X154971714Y-132802380D01*
X155114571Y-132850000D01*
X155162190Y-132897619D01*
X155590761Y-133421428D02*
X156352666Y-133421428D01*
X156828857Y-133802380D02*
X156828857Y-132802380D01*
X157066952Y-132802380D01*
X157209809Y-132850000D01*
X157305047Y-132945238D01*
X157352666Y-133040476D01*
X157400285Y-133230952D01*
X157400285Y-133373809D01*
X157352666Y-133564285D01*
X157305047Y-133659523D01*
X157209809Y-133754761D01*
X157066952Y-133802380D01*
X156828857Y-133802380D01*
X158400285Y-133707142D02*
X158352666Y-133754761D01*
X158209809Y-133802380D01*
X158114571Y-133802380D01*
X157971714Y-133754761D01*
X157876476Y-133659523D01*
X157828857Y-133564285D01*
X157781238Y-133373809D01*
X157781238Y-133230952D01*
X157828857Y-133040476D01*
X157876476Y-132945238D01*
X157971714Y-132850000D01*
X158114571Y-132802380D01*
X158209809Y-132802380D01*
X158352666Y-132850000D01*
X158400285Y-132897619D01*
X166560952Y-133929380D02*
X165989523Y-133929380D01*
X166275238Y-133929380D02*
X166275238Y-132929380D01*
X166180000Y-133072238D01*
X166084761Y-133167476D01*
X165989523Y-133215095D01*
X166941904Y-133024619D02*
X166989523Y-132977000D01*
X167084761Y-132929380D01*
X167322857Y-132929380D01*
X167418095Y-132977000D01*
X167465714Y-133024619D01*
X167513333Y-133119857D01*
X167513333Y-133215095D01*
X167465714Y-133357952D01*
X166894285Y-133929380D01*
X167513333Y-133929380D01*
X167799047Y-132929380D02*
X168132380Y-133929380D01*
X168465714Y-132929380D01*
X169560952Y-133929380D02*
X169560952Y-132929380D01*
X169799047Y-132929380D01*
X169941904Y-132977000D01*
X170037142Y-133072238D01*
X170084761Y-133167476D01*
X170132380Y-133357952D01*
X170132380Y-133500809D01*
X170084761Y-133691285D01*
X170037142Y-133786523D01*
X169941904Y-133881761D01*
X169799047Y-133929380D01*
X169560952Y-133929380D01*
X171132380Y-133834142D02*
X171084761Y-133881761D01*
X170941904Y-133929380D01*
X170846666Y-133929380D01*
X170703809Y-133881761D01*
X170608571Y-133786523D01*
X170560952Y-133691285D01*
X170513333Y-133500809D01*
X170513333Y-133357952D01*
X170560952Y-133167476D01*
X170608571Y-133072238D01*
X170703809Y-132977000D01*
X170846666Y-132929380D01*
X170941904Y-132929380D01*
X171084761Y-132977000D01*
X171132380Y-133024619D01*
X171560952Y-133548428D02*
X172322857Y-133548428D01*
X172799047Y-133929380D02*
X172799047Y-132929380D01*
X173037142Y-132929380D01*
X173180000Y-132977000D01*
X173275238Y-133072238D01*
X173322857Y-133167476D01*
X173370476Y-133357952D01*
X173370476Y-133500809D01*
X173322857Y-133691285D01*
X173275238Y-133786523D01*
X173180000Y-133881761D01*
X173037142Y-133929380D01*
X172799047Y-133929380D01*
X174370476Y-133834142D02*
X174322857Y-133881761D01*
X174180000Y-133929380D01*
X174084761Y-133929380D01*
X173941904Y-133881761D01*
X173846666Y-133786523D01*
X173799047Y-133691285D01*
X173751428Y-133500809D01*
X173751428Y-133357952D01*
X173799047Y-133167476D01*
X173846666Y-133072238D01*
X173941904Y-132977000D01*
X174084761Y-132929380D01*
X174180000Y-132929380D01*
X174322857Y-132977000D01*
X174370476Y-133024619D01*
X113077761Y-137803380D02*
X113077761Y-136803380D01*
X113553952Y-137803380D02*
X113553952Y-136803380D01*
X113887285Y-137517666D01*
X114220619Y-136803380D01*
X114220619Y-137803380D01*
X114696809Y-136803380D02*
X114696809Y-137612904D01*
X114744428Y-137708142D01*
X114792047Y-137755761D01*
X114887285Y-137803380D01*
X115077761Y-137803380D01*
X115173000Y-137755761D01*
X115220619Y-137708142D01*
X115268238Y-137612904D01*
X115268238Y-136803380D01*
X112030142Y-139453380D02*
X112030142Y-138453380D01*
X112411095Y-138453380D01*
X112506333Y-138501000D01*
X112553952Y-138548619D01*
X112601571Y-138643857D01*
X112601571Y-138786714D01*
X112553952Y-138881952D01*
X112506333Y-138929571D01*
X112411095Y-138977190D01*
X112030142Y-138977190D01*
X113030142Y-139453380D02*
X113030142Y-138786714D01*
X113030142Y-138453380D02*
X112982523Y-138501000D01*
X113030142Y-138548619D01*
X113077761Y-138501000D01*
X113030142Y-138453380D01*
X113030142Y-138548619D01*
X113506333Y-138786714D02*
X113506333Y-139453380D01*
X113506333Y-138881952D02*
X113553952Y-138834333D01*
X113649190Y-138786714D01*
X113792047Y-138786714D01*
X113887285Y-138834333D01*
X113934904Y-138929571D01*
X113934904Y-139453380D01*
X114553952Y-139453380D02*
X114458714Y-139405761D01*
X114411095Y-139358142D01*
X114363476Y-139262904D01*
X114363476Y-138977190D01*
X114411095Y-138881952D01*
X114458714Y-138834333D01*
X114553952Y-138786714D01*
X114696809Y-138786714D01*
X114792047Y-138834333D01*
X114839666Y-138881952D01*
X114887285Y-138977190D01*
X114887285Y-139262904D01*
X114839666Y-139358142D01*
X114792047Y-139405761D01*
X114696809Y-139453380D01*
X114553952Y-139453380D01*
X115744428Y-138786714D02*
X115744428Y-139453380D01*
X115315857Y-138786714D02*
X115315857Y-139310523D01*
X115363476Y-139405761D01*
X115458714Y-139453380D01*
X115601571Y-139453380D01*
X115696809Y-139405761D01*
X115744428Y-139358142D01*
X116077761Y-138786714D02*
X116458714Y-138786714D01*
X116220619Y-138453380D02*
X116220619Y-139310523D01*
X116268238Y-139405761D01*
X116363476Y-139453380D01*
X116458714Y-139453380D01*
X82290565Y-136690860D02*
X82290565Y-135690860D01*
X82528660Y-135690860D01*
X82671518Y-135738480D01*
X82766756Y-135833718D01*
X82814375Y-135928956D01*
X82861994Y-136119432D01*
X82861994Y-136262289D01*
X82814375Y-136452765D01*
X82766756Y-136548003D01*
X82671518Y-136643241D01*
X82528660Y-136690860D01*
X82290565Y-136690860D01*
X83671518Y-136643241D02*
X83576280Y-136690860D01*
X83385803Y-136690860D01*
X83290565Y-136643241D01*
X83242946Y-136548003D01*
X83242946Y-136167051D01*
X83290565Y-136071813D01*
X83385803Y-136024194D01*
X83576280Y-136024194D01*
X83671518Y-136071813D01*
X83719137Y-136167051D01*
X83719137Y-136262289D01*
X83242946Y-136357527D01*
X84147708Y-136024194D02*
X84147708Y-137024194D01*
X84147708Y-136071813D02*
X84242946Y-136024194D01*
X84433422Y-136024194D01*
X84528660Y-136071813D01*
X84576280Y-136119432D01*
X84623899Y-136214670D01*
X84623899Y-136500384D01*
X84576280Y-136595622D01*
X84528660Y-136643241D01*
X84433422Y-136690860D01*
X84242946Y-136690860D01*
X84147708Y-136643241D01*
X84909613Y-136024194D02*
X85290565Y-136024194D01*
X85052470Y-135690860D02*
X85052470Y-136548003D01*
X85100089Y-136643241D01*
X85195327Y-136690860D01*
X85290565Y-136690860D01*
X85623899Y-136690860D02*
X85623899Y-135690860D01*
X86052470Y-136690860D02*
X86052470Y-136167051D01*
X86004851Y-136071813D01*
X85909613Y-136024194D01*
X85766756Y-136024194D01*
X85671518Y-136071813D01*
X85623899Y-136119432D01*
X87242946Y-136643241D02*
X87385803Y-136690860D01*
X87623899Y-136690860D01*
X87719137Y-136643241D01*
X87766756Y-136595622D01*
X87814375Y-136500384D01*
X87814375Y-136405146D01*
X87766756Y-136309908D01*
X87719137Y-136262289D01*
X87623899Y-136214670D01*
X87433422Y-136167051D01*
X87338184Y-136119432D01*
X87290565Y-136071813D01*
X87242946Y-135976575D01*
X87242946Y-135881337D01*
X87290565Y-135786099D01*
X87338184Y-135738480D01*
X87433422Y-135690860D01*
X87671518Y-135690860D01*
X87814375Y-135738480D01*
X88623899Y-136643241D02*
X88528660Y-136690860D01*
X88338184Y-136690860D01*
X88242946Y-136643241D01*
X88195327Y-136548003D01*
X88195327Y-136167051D01*
X88242946Y-136071813D01*
X88338184Y-136024194D01*
X88528660Y-136024194D01*
X88623899Y-136071813D01*
X88671518Y-136167051D01*
X88671518Y-136262289D01*
X88195327Y-136357527D01*
X89100089Y-136024194D02*
X89100089Y-136690860D01*
X89100089Y-136119432D02*
X89147708Y-136071813D01*
X89242946Y-136024194D01*
X89385803Y-136024194D01*
X89481041Y-136071813D01*
X89528660Y-136167051D01*
X89528660Y-136690860D01*
X89957232Y-136643241D02*
X90052470Y-136690860D01*
X90242946Y-136690860D01*
X90338184Y-136643241D01*
X90385803Y-136548003D01*
X90385803Y-136500384D01*
X90338184Y-136405146D01*
X90242946Y-136357527D01*
X90100089Y-136357527D01*
X90004851Y-136309908D01*
X89957232Y-136214670D01*
X89957232Y-136167051D01*
X90004851Y-136071813D01*
X90100089Y-136024194D01*
X90242946Y-136024194D01*
X90338184Y-136071813D01*
X90957232Y-136690860D02*
X90861994Y-136643241D01*
X90814375Y-136595622D01*
X90766756Y-136500384D01*
X90766756Y-136214670D01*
X90814375Y-136119432D01*
X90861994Y-136071813D01*
X90957232Y-136024194D01*
X91100089Y-136024194D01*
X91195327Y-136071813D01*
X91242946Y-136119432D01*
X91290565Y-136214670D01*
X91290565Y-136500384D01*
X91242946Y-136595622D01*
X91195327Y-136643241D01*
X91100089Y-136690860D01*
X90957232Y-136690860D01*
X91719137Y-136690860D02*
X91719137Y-136024194D01*
X91719137Y-136214670D02*
X91766756Y-136119432D01*
X91814375Y-136071813D01*
X91909613Y-136024194D01*
X92004851Y-136024194D01*
X84933422Y-138340860D02*
X84933422Y-137340860D01*
X85314375Y-137340860D01*
X85409613Y-137388480D01*
X85457232Y-137436099D01*
X85504851Y-137531337D01*
X85504851Y-137674194D01*
X85457232Y-137769432D01*
X85409613Y-137817051D01*
X85314375Y-137864670D01*
X84933422Y-137864670D01*
X85933422Y-138340860D02*
X85933422Y-137674194D01*
X85933422Y-137340860D02*
X85885803Y-137388480D01*
X85933422Y-137436099D01*
X85981041Y-137388480D01*
X85933422Y-137340860D01*
X85933422Y-137436099D01*
X86409613Y-137674194D02*
X86409613Y-138340860D01*
X86409613Y-137769432D02*
X86457232Y-137721813D01*
X86552470Y-137674194D01*
X86695327Y-137674194D01*
X86790565Y-137721813D01*
X86838184Y-137817051D01*
X86838184Y-138340860D01*
X87457232Y-138340860D02*
X87361994Y-138293241D01*
X87314375Y-138245622D01*
X87266756Y-138150384D01*
X87266756Y-137864670D01*
X87314375Y-137769432D01*
X87361994Y-137721813D01*
X87457232Y-137674194D01*
X87600089Y-137674194D01*
X87695327Y-137721813D01*
X87742946Y-137769432D01*
X87790565Y-137864670D01*
X87790565Y-138150384D01*
X87742946Y-138245622D01*
X87695327Y-138293241D01*
X87600089Y-138340860D01*
X87457232Y-138340860D01*
X88647708Y-137674194D02*
X88647708Y-138340860D01*
X88219137Y-137674194D02*
X88219137Y-138198003D01*
X88266756Y-138293241D01*
X88361994Y-138340860D01*
X88504851Y-138340860D01*
X88600089Y-138293241D01*
X88647708Y-138245622D01*
X88981041Y-137674194D02*
X89361994Y-137674194D01*
X89123899Y-137340860D02*
X89123899Y-138198003D01*
X89171518Y-138293241D01*
X89266756Y-138340860D01*
X89361994Y-138340860D01*
X93504809Y-154122380D02*
X93504809Y-153122380D01*
X93933380Y-153217619D02*
X93981000Y-153170000D01*
X94076238Y-153122380D01*
X94314333Y-153122380D01*
X94409571Y-153170000D01*
X94457190Y-153217619D01*
X94504809Y-153312857D01*
X94504809Y-153408095D01*
X94457190Y-153550952D01*
X93885761Y-154122380D01*
X94504809Y-154122380D01*
X95504809Y-154027142D02*
X95457190Y-154074761D01*
X95314333Y-154122380D01*
X95219095Y-154122380D01*
X95076238Y-154074761D01*
X94981000Y-153979523D01*
X94933380Y-153884285D01*
X94885761Y-153693809D01*
X94885761Y-153550952D01*
X94933380Y-153360476D01*
X94981000Y-153265238D01*
X95076238Y-153170000D01*
X95219095Y-153122380D01*
X95314333Y-153122380D01*
X95457190Y-153170000D01*
X95504809Y-153217619D01*
X97171476Y-154122380D02*
X96695285Y-154122380D01*
X96695285Y-153122380D01*
X97647666Y-154122380D02*
X97552428Y-154074761D01*
X97504809Y-154027142D01*
X97457190Y-153931904D01*
X97457190Y-153646190D01*
X97504809Y-153550952D01*
X97552428Y-153503333D01*
X97647666Y-153455714D01*
X97790523Y-153455714D01*
X97885761Y-153503333D01*
X97933380Y-153550952D01*
X97981000Y-153646190D01*
X97981000Y-153931904D01*
X97933380Y-154027142D01*
X97885761Y-154074761D01*
X97790523Y-154122380D01*
X97647666Y-154122380D01*
X98838142Y-153455714D02*
X98838142Y-154265238D01*
X98790523Y-154360476D01*
X98742904Y-154408095D01*
X98647666Y-154455714D01*
X98504809Y-154455714D01*
X98409571Y-154408095D01*
X98838142Y-154074761D02*
X98742904Y-154122380D01*
X98552428Y-154122380D01*
X98457190Y-154074761D01*
X98409571Y-154027142D01*
X98361952Y-153931904D01*
X98361952Y-153646190D01*
X98409571Y-153550952D01*
X98457190Y-153503333D01*
X98552428Y-153455714D01*
X98742904Y-153455714D01*
X98838142Y-153503333D01*
X99314333Y-154122380D02*
X99314333Y-153455714D01*
X99314333Y-153122380D02*
X99266714Y-153170000D01*
X99314333Y-153217619D01*
X99361952Y-153170000D01*
X99314333Y-153122380D01*
X99314333Y-153217619D01*
X100219095Y-154074761D02*
X100123857Y-154122380D01*
X99933380Y-154122380D01*
X99838142Y-154074761D01*
X99790523Y-154027142D01*
X99742904Y-153931904D01*
X99742904Y-153646190D01*
X99790523Y-153550952D01*
X99838142Y-153503333D01*
X99933380Y-153455714D01*
X100123857Y-153455714D01*
X100219095Y-153503333D01*
X101885761Y-154122380D02*
X101409571Y-154122380D01*
X101409571Y-153122380D01*
X102600047Y-154074761D02*
X102504809Y-154122380D01*
X102314333Y-154122380D01*
X102219095Y-154074761D01*
X102171476Y-153979523D01*
X102171476Y-153598571D01*
X102219095Y-153503333D01*
X102314333Y-153455714D01*
X102504809Y-153455714D01*
X102600047Y-153503333D01*
X102647666Y-153598571D01*
X102647666Y-153693809D01*
X102171476Y-153789047D01*
X102981000Y-153455714D02*
X103219095Y-154122380D01*
X103457190Y-153455714D01*
X104219095Y-154074761D02*
X104123857Y-154122380D01*
X103933380Y-154122380D01*
X103838142Y-154074761D01*
X103790523Y-153979523D01*
X103790523Y-153598571D01*
X103838142Y-153503333D01*
X103933380Y-153455714D01*
X104123857Y-153455714D01*
X104219095Y-153503333D01*
X104266714Y-153598571D01*
X104266714Y-153693809D01*
X103790523Y-153789047D01*
X104838142Y-154122380D02*
X104742904Y-154074761D01*
X104695285Y-153979523D01*
X104695285Y-153122380D01*
X105933380Y-154074761D02*
X106076238Y-154122380D01*
X106314333Y-154122380D01*
X106409571Y-154074761D01*
X106457190Y-154027142D01*
X106504809Y-153931904D01*
X106504809Y-153836666D01*
X106457190Y-153741428D01*
X106409571Y-153693809D01*
X106314333Y-153646190D01*
X106123857Y-153598571D01*
X106028619Y-153550952D01*
X105981000Y-153503333D01*
X105933380Y-153408095D01*
X105933380Y-153312857D01*
X105981000Y-153217619D01*
X106028619Y-153170000D01*
X106123857Y-153122380D01*
X106361952Y-153122380D01*
X106504809Y-153170000D01*
X106933380Y-154122380D02*
X106933380Y-153122380D01*
X107361952Y-154122380D02*
X107361952Y-153598571D01*
X107314333Y-153503333D01*
X107219095Y-153455714D01*
X107076238Y-153455714D01*
X106981000Y-153503333D01*
X106933380Y-153550952D01*
X107838142Y-154122380D02*
X107838142Y-153455714D01*
X107838142Y-153122380D02*
X107790523Y-153170000D01*
X107838142Y-153217619D01*
X107885761Y-153170000D01*
X107838142Y-153122380D01*
X107838142Y-153217619D01*
X108171476Y-153455714D02*
X108552428Y-153455714D01*
X108314333Y-154122380D02*
X108314333Y-153265238D01*
X108361952Y-153170000D01*
X108457190Y-153122380D01*
X108552428Y-153122380D01*
X108742904Y-153455714D02*
X109123857Y-153455714D01*
X108885761Y-153122380D02*
X108885761Y-153979523D01*
X108933380Y-154074761D01*
X109028619Y-154122380D01*
X109123857Y-154122380D01*
X109838142Y-154074761D02*
X109742904Y-154122380D01*
X109552428Y-154122380D01*
X109457190Y-154074761D01*
X109409571Y-153979523D01*
X109409571Y-153598571D01*
X109457190Y-153503333D01*
X109552428Y-153455714D01*
X109742904Y-153455714D01*
X109838142Y-153503333D01*
X109885761Y-153598571D01*
X109885761Y-153693809D01*
X109409571Y-153789047D01*
X110314333Y-154122380D02*
X110314333Y-153455714D01*
X110314333Y-153646190D02*
X110361952Y-153550952D01*
X110409571Y-153503333D01*
X110504809Y-153455714D01*
X110600047Y-153455714D01*
D11*
X94101000Y-135746000D02*
G75*
G03*
X94101000Y-135746000I-500000J0D01*
G01*
D12*
X93303031Y-119286911D02*
X93303031Y-67997034D01*
X94297513Y-66981393D02*
X189746620Y-66981393D01*
X192285722Y-69520496D02*
X192285722Y-79676907D01*
X192285722Y-79676907D02*
X194824825Y-82216010D01*
X191291241Y-120281393D02*
X94297513Y-120281393D01*
X194824825Y-82216010D02*
X194824825Y-116472739D01*
D11*
%TO.C,J7*%
X119955000Y-119059000D02*
X119955000Y-117729000D01*
X121285000Y-119059000D02*
X119955000Y-119059000D01*
X122555000Y-119059000D02*
X122555000Y-116399000D01*
X122555000Y-116399000D02*
X140395000Y-116399000D01*
X122555000Y-119059000D02*
X140395000Y-119059000D01*
X140395000Y-119059000D02*
X140395000Y-116399000D01*
%TO.C,U2*%
X148940000Y-152383000D02*
X160940000Y-152383000D01*
X160940000Y-152383000D02*
X160940000Y-134383000D01*
X160940000Y-134383000D02*
X148940000Y-134383000D01*
X148940000Y-134383000D02*
X148940000Y-152383000D01*
%TO.C,U1*%
X164561000Y-134637000D02*
X164561000Y-152637000D01*
X176561000Y-134637000D02*
X164561000Y-134637000D01*
X176561000Y-152637000D02*
X176561000Y-134637000D01*
X164561000Y-152637000D02*
X176561000Y-152637000D01*
%TO.C,PCB1*%
X108101000Y-150998000D02*
X95101000Y-150998000D01*
X95101000Y-150998000D02*
X95101000Y-134998000D01*
X95101000Y-134998000D02*
X108101000Y-134998000D01*
X108101000Y-134998000D02*
X108101000Y-150998000D01*
%TO.C,K6*%
X323380000Y-71530000D02*
X296380000Y-71530000D01*
X323380000Y-84330000D02*
X323380000Y-71530000D01*
X318780000Y-84330000D02*
X323380000Y-84330000D01*
X318780000Y-103730000D02*
X318780000Y-84330000D01*
X318780000Y-103730000D02*
X298780000Y-103730000D01*
X298780000Y-89130000D02*
X298780000Y-103730000D01*
X296380000Y-89130000D02*
X298780000Y-89130000D01*
X296380000Y-71530000D02*
X296380000Y-89130000D01*
%TO.C,K2*%
X278350000Y-160980000D02*
X278350000Y-128580000D01*
X305850000Y-160980000D02*
X278350000Y-160980000D01*
X305850000Y-128580000D02*
X305850000Y-160980000D01*
X278350000Y-128580000D02*
X305850000Y-128580000D01*
%TO.C,J2*%
X324715000Y-48515000D02*
X208915000Y-48515000D01*
X324715000Y-64515000D02*
X324715000Y-48515000D01*
X208915000Y-64515000D02*
X324715000Y-64515000D01*
X208915000Y-48515000D02*
X208915000Y-64515000D01*
%TO.C,R5*%
X154845000Y-158650000D02*
X154845000Y-161390000D01*
X154845000Y-161390000D02*
X161385000Y-161390000D01*
X161385000Y-161390000D02*
X161385000Y-158650000D01*
X161385000Y-158650000D02*
X154845000Y-158650000D01*
X154075000Y-160020000D02*
X154845000Y-160020000D01*
X162155000Y-160020000D02*
X161385000Y-160020000D01*
%TO.C,R4*%
X130080000Y-158650000D02*
X130080000Y-161390000D01*
X130080000Y-161390000D02*
X136620000Y-161390000D01*
X136620000Y-161390000D02*
X136620000Y-158650000D01*
X136620000Y-158650000D02*
X130080000Y-158650000D01*
X129310000Y-160020000D02*
X130080000Y-160020000D01*
X137390000Y-160020000D02*
X136620000Y-160020000D01*
%TO.C,J17*%
X134560000Y-149920000D02*
X137220000Y-149920000D01*
X134560000Y-142240000D02*
X134560000Y-149920000D01*
X137220000Y-142240000D02*
X137220000Y-149920000D01*
X134560000Y-142240000D02*
X137220000Y-142240000D01*
X134560000Y-140970000D02*
X134560000Y-139640000D01*
X134560000Y-139640000D02*
X135890000Y-139640000D01*
%TO.C,J16*%
X126145600Y-146618000D02*
X126145600Y-143958000D01*
X121005600Y-146618000D02*
X126145600Y-146618000D01*
X121005600Y-143958000D02*
X126145600Y-143958000D01*
X121005600Y-146618000D02*
X121005600Y-143958000D01*
X119735600Y-146618000D02*
X118405600Y-146618000D01*
X118405600Y-146618000D02*
X118405600Y-145288000D01*
%TO.C,J15*%
X126145600Y-154390400D02*
X126145600Y-151730400D01*
X121005600Y-154390400D02*
X126145600Y-154390400D01*
X121005600Y-151730400D02*
X126145600Y-151730400D01*
X121005600Y-154390400D02*
X121005600Y-151730400D01*
X119735600Y-154390400D02*
X118405600Y-154390400D01*
X118405600Y-154390400D02*
X118405600Y-153060400D01*
%TO.C,J14*%
X118558000Y-133290000D02*
X118558000Y-135950000D01*
X123698000Y-133290000D02*
X118558000Y-133290000D01*
X123698000Y-135950000D02*
X118558000Y-135950000D01*
X123698000Y-133290000D02*
X123698000Y-135950000D01*
X124968000Y-133290000D02*
X126298000Y-133290000D01*
X126298000Y-133290000D02*
X126298000Y-134620000D01*
%TO.C,D3*%
X165276001Y-158848001D02*
X165276001Y-159004001D01*
X165276001Y-161164001D02*
X165276001Y-161320001D01*
X167877131Y-161163838D02*
G75*
G02*
X165795040Y-161164001I-1041130J1079837D01*
G01*
X167877131Y-159004164D02*
G75*
G03*
X165795040Y-159004001I-1041130J-1079837D01*
G01*
X168508336Y-161162609D02*
G75*
G02*
X165276001Y-161319517I-1672335J1078608D01*
G01*
X168508336Y-159005393D02*
G75*
G03*
X165276001Y-158848485I-1672335J-1078608D01*
G01*
%TO.C,D2*%
X140511001Y-159013001D02*
X140511001Y-159169001D01*
X140511001Y-161329001D02*
X140511001Y-161485001D01*
X143112131Y-161328838D02*
G75*
G02*
X141030040Y-161329001I-1041130J1079837D01*
G01*
X143112131Y-159169164D02*
G75*
G03*
X141030040Y-159169001I-1041130J-1079837D01*
G01*
X143743336Y-161327609D02*
G75*
G02*
X140511001Y-161484517I-1672335J1078608D01*
G01*
X143743336Y-159170393D02*
G75*
G03*
X140511001Y-159013485I-1672335J-1078608D01*
G01*
%TO.C,D1*%
X209115000Y-154270000D02*
X206175000Y-154270000D01*
X209115000Y-154510000D02*
X206175000Y-154510000D01*
X209115000Y-154390000D02*
X206175000Y-154390000D01*
X207645000Y-159950000D02*
X207645000Y-158930000D01*
X207645000Y-152470000D02*
X207645000Y-153490000D01*
X209115000Y-158930000D02*
X209115000Y-153490000D01*
X206175000Y-158930000D02*
X209115000Y-158930000D01*
X206175000Y-153490000D02*
X206175000Y-158930000D01*
X209115000Y-153490000D02*
X206175000Y-153490000D01*
%TO.C,J1*%
X138370000Y-139640000D02*
X139700000Y-139640000D01*
X138370000Y-140970000D02*
X138370000Y-139640000D01*
X138370000Y-142240000D02*
X141030000Y-142240000D01*
X141030000Y-142240000D02*
X141030000Y-149920000D01*
X138370000Y-142240000D02*
X138370000Y-149920000D01*
X138370000Y-149920000D02*
X141030000Y-149920000D01*
%TO.C,K4*%
X245330000Y-160980000D02*
X245330000Y-128580000D01*
X272830000Y-160980000D02*
X245330000Y-160980000D01*
X272830000Y-128580000D02*
X272830000Y-160980000D01*
X245330000Y-128580000D02*
X272830000Y-128580000D01*
%TO.C,K5*%
X235170000Y-103830000D02*
X235170000Y-71430000D01*
X262670000Y-103830000D02*
X235170000Y-103830000D01*
X262670000Y-71430000D02*
X262670000Y-103830000D01*
X235170000Y-71430000D02*
X262670000Y-71430000D01*
%TO.C,K3*%
X292900000Y-71530000D02*
X265900000Y-71530000D01*
X292900000Y-84330000D02*
X292900000Y-71530000D01*
X288300000Y-84330000D02*
X292900000Y-84330000D01*
X288300000Y-103730000D02*
X288300000Y-84330000D01*
X288300000Y-103730000D02*
X268300000Y-103730000D01*
X268300000Y-89130000D02*
X268300000Y-103730000D01*
X265900000Y-89130000D02*
X268300000Y-89130000D01*
X265900000Y-71530000D02*
X265900000Y-89130000D01*
%TO.C,K1*%
X212310000Y-160980000D02*
X212310000Y-128580000D01*
X239810000Y-160980000D02*
X212310000Y-160980000D01*
X239810000Y-128580000D02*
X239810000Y-160980000D01*
X212310000Y-128580000D02*
X239810000Y-128580000D01*
%TO.C,J3*%
X115503000Y-140148000D02*
X112843000Y-140148000D01*
X115503000Y-147828000D02*
X115503000Y-140148000D01*
X112843000Y-147828000D02*
X112843000Y-140148000D01*
X115503000Y-147828000D02*
X112843000Y-147828000D01*
X115503000Y-149098000D02*
X115503000Y-150428000D01*
X115503000Y-150428000D02*
X114173000Y-150428000D01*
%TO.C,J4*%
X88325000Y-150428000D02*
X86995000Y-150428000D01*
X88325000Y-149098000D02*
X88325000Y-150428000D01*
X88325000Y-147828000D02*
X85665000Y-147828000D01*
X85665000Y-147828000D02*
X85665000Y-140148000D01*
X88325000Y-147828000D02*
X88325000Y-140148000D01*
X88325000Y-140148000D02*
X85665000Y-140148000D01*
D13*
%TO.C,J5*%
X329053000Y-118001000D02*
G75*
G03*
X329053000Y-118001000I-150000J0D01*
G01*
D14*
X330203000Y-117351000D02*
X331103000Y-116331000D01*
X332853000Y-114351000D02*
X331853000Y-115481000D01*
X327403000Y-117351000D02*
X326503000Y-116331000D01*
X324753000Y-114351000D02*
X325753000Y-115481000D01*
X330203000Y-117351000D02*
X327403000Y-117351000D01*
X332853000Y-101851000D02*
X332853000Y-114351000D01*
X324753000Y-101851000D02*
X332853000Y-101851000D01*
X324753000Y-114351000D02*
X324753000Y-101851000D01*
D11*
%TO.C,J6*%
X138243000Y-55693000D02*
X138243000Y-60893000D01*
X151003000Y-55693000D02*
X138243000Y-55693000D01*
X153603000Y-60893000D02*
X138243000Y-60893000D01*
X151003000Y-55693000D02*
X151003000Y-58293000D01*
X151003000Y-58293000D02*
X153603000Y-58293000D01*
X153603000Y-58293000D02*
X153603000Y-60893000D01*
X152273000Y-55693000D02*
X153603000Y-55693000D01*
X153603000Y-55693000D02*
X153603000Y-57023000D01*
%TO.C,J8*%
X163255000Y-119059000D02*
X163255000Y-116399000D01*
X145415000Y-119059000D02*
X163255000Y-119059000D01*
X145415000Y-116399000D02*
X163255000Y-116399000D01*
X145415000Y-119059000D02*
X145415000Y-116399000D01*
X144145000Y-119059000D02*
X142815000Y-119059000D01*
X142815000Y-119059000D02*
X142815000Y-117729000D01*
%TO.C,J9*%
X165675000Y-119059000D02*
X165675000Y-117729000D01*
X167005000Y-119059000D02*
X165675000Y-119059000D01*
X168275000Y-119059000D02*
X168275000Y-116399000D01*
X168275000Y-116399000D02*
X186115000Y-116399000D01*
X168275000Y-119059000D02*
X186115000Y-119059000D01*
X186115000Y-119059000D02*
X186115000Y-116399000D01*
%TO.C,J10*%
X185995000Y-113979000D02*
X191195000Y-113979000D01*
X185995000Y-70739000D02*
X185995000Y-113979000D01*
X191195000Y-68139000D02*
X191195000Y-113979000D01*
X185995000Y-70739000D02*
X188595000Y-70739000D01*
X188595000Y-70739000D02*
X188595000Y-68139000D01*
X188595000Y-68139000D02*
X191195000Y-68139000D01*
X185995000Y-69469000D02*
X185995000Y-68139000D01*
X185995000Y-68139000D02*
X187325000Y-68139000D01*
%TO.C,J11*%
X110811000Y-70799000D02*
X110811000Y-69469000D01*
X112141000Y-70799000D02*
X110811000Y-70799000D01*
X113411000Y-70799000D02*
X113411000Y-68139000D01*
X113411000Y-68139000D02*
X136331000Y-68139000D01*
X113411000Y-70799000D02*
X136331000Y-70799000D01*
X136331000Y-70799000D02*
X136331000Y-68139000D01*
%TO.C,J12*%
X158175000Y-70799000D02*
X158175000Y-68139000D01*
X140335000Y-70799000D02*
X158175000Y-70799000D01*
X140335000Y-68139000D02*
X158175000Y-68139000D01*
X140335000Y-70799000D02*
X140335000Y-68139000D01*
X139065000Y-70799000D02*
X137735000Y-70799000D01*
X137735000Y-70799000D02*
X137735000Y-69469000D01*
%TO.C,J13*%
X160595000Y-70799000D02*
X160595000Y-69469000D01*
X161925000Y-70799000D02*
X160595000Y-70799000D01*
X163195000Y-70799000D02*
X163195000Y-68139000D01*
X163195000Y-68139000D02*
X181035000Y-68139000D01*
X163195000Y-70799000D02*
X181035000Y-70799000D01*
X181035000Y-70799000D02*
X181035000Y-68139000D01*
%TO.C,R1*%
X201168000Y-152170000D02*
X201168000Y-152940000D01*
X201168000Y-160250000D02*
X201168000Y-159480000D01*
X199798000Y-152940000D02*
X199798000Y-159480000D01*
X202538000Y-152940000D02*
X199798000Y-152940000D01*
X202538000Y-159480000D02*
X202538000Y-152940000D01*
X199798000Y-159480000D02*
X202538000Y-159480000D01*
%TO.C,R2*%
X113257000Y-53499000D02*
X110517000Y-53499000D01*
X110517000Y-53499000D02*
X110517000Y-60039000D01*
X110517000Y-60039000D02*
X113257000Y-60039000D01*
X113257000Y-60039000D02*
X113257000Y-53499000D01*
X111887000Y-52729000D02*
X111887000Y-53499000D01*
X111887000Y-60809000D02*
X111887000Y-60039000D01*
%TO.C,R3*%
X116559000Y-53499000D02*
X113819000Y-53499000D01*
X113819000Y-53499000D02*
X113819000Y-60039000D01*
X113819000Y-60039000D02*
X116559000Y-60039000D01*
X116559000Y-60039000D02*
X116559000Y-53499000D01*
X115189000Y-52729000D02*
X115189000Y-53499000D01*
X115189000Y-60809000D02*
X115189000Y-60039000D01*
D15*
%TO.C,U3*%
X191389000Y-160020000D02*
X191389000Y-151384000D01*
X192151000Y-150622000D02*
X195199000Y-150622000D01*
X195199000Y-150622000D02*
X195834000Y-150622000D01*
X195834000Y-160782000D02*
X195199000Y-160782000D01*
X195199000Y-160782000D02*
X192278000Y-160782000D01*
X195199000Y-160782000D02*
X195199000Y-150622000D01*
X195834000Y-150622000D02*
X195834000Y-160782000D01*
X191389000Y-151384000D02*
G75*
G02*
X192151000Y-150622000I762000J0D01*
G01*
X192278000Y-160782000D02*
G75*
G02*
X191389000Y-160020000I-63500J825500D01*
G01*
%TO.C,J7*%
D10*
X118407380Y-118062333D02*
X119121666Y-118062333D01*
X119264523Y-118109952D01*
X119359761Y-118205190D01*
X119407380Y-118348047D01*
X119407380Y-118443285D01*
X118407380Y-117681380D02*
X118407380Y-117014714D01*
X119407380Y-117443285D01*
%TO.C,J8*%
X141267380Y-118062333D02*
X141981666Y-118062333D01*
X142124523Y-118109952D01*
X142219761Y-118205190D01*
X142267380Y-118348047D01*
X142267380Y-118443285D01*
X141695952Y-117443285D02*
X141648333Y-117538523D01*
X141600714Y-117586142D01*
X141505476Y-117633761D01*
X141457857Y-117633761D01*
X141362619Y-117586142D01*
X141315000Y-117538523D01*
X141267380Y-117443285D01*
X141267380Y-117252809D01*
X141315000Y-117157571D01*
X141362619Y-117109952D01*
X141457857Y-117062333D01*
X141505476Y-117062333D01*
X141600714Y-117109952D01*
X141648333Y-117157571D01*
X141695952Y-117252809D01*
X141695952Y-117443285D01*
X141743571Y-117538523D01*
X141791190Y-117586142D01*
X141886428Y-117633761D01*
X142076904Y-117633761D01*
X142172142Y-117586142D01*
X142219761Y-117538523D01*
X142267380Y-117443285D01*
X142267380Y-117252809D01*
X142219761Y-117157571D01*
X142172142Y-117109952D01*
X142076904Y-117062333D01*
X141886428Y-117062333D01*
X141791190Y-117109952D01*
X141743571Y-117157571D01*
X141695952Y-117252809D01*
%TO.C,J9*%
X164127380Y-118062333D02*
X164841666Y-118062333D01*
X164984523Y-118109952D01*
X165079761Y-118205190D01*
X165127380Y-118348047D01*
X165127380Y-118443285D01*
X165127380Y-117538523D02*
X165127380Y-117348047D01*
X165079761Y-117252809D01*
X165032142Y-117205190D01*
X164889285Y-117109952D01*
X164698809Y-117062333D01*
X164317857Y-117062333D01*
X164222619Y-117109952D01*
X164175000Y-117157571D01*
X164127380Y-117252809D01*
X164127380Y-117443285D01*
X164175000Y-117538523D01*
X164222619Y-117586142D01*
X164317857Y-117633761D01*
X164555952Y-117633761D01*
X164651190Y-117586142D01*
X164698809Y-117538523D01*
X164746428Y-117443285D01*
X164746428Y-117252809D01*
X164698809Y-117157571D01*
X164651190Y-117109952D01*
X164555952Y-117062333D01*
%TO.C,J10*%
X187785476Y-66591380D02*
X187785476Y-67305666D01*
X187737857Y-67448523D01*
X187642619Y-67543761D01*
X187499761Y-67591380D01*
X187404523Y-67591380D01*
X188785476Y-67591380D02*
X188214047Y-67591380D01*
X188499761Y-67591380D02*
X188499761Y-66591380D01*
X188404523Y-66734238D01*
X188309285Y-66829476D01*
X188214047Y-66877095D01*
X189404523Y-66591380D02*
X189499761Y-66591380D01*
X189595000Y-66639000D01*
X189642619Y-66686619D01*
X189690238Y-66781857D01*
X189737857Y-66972333D01*
X189737857Y-67210428D01*
X189690238Y-67400904D01*
X189642619Y-67496142D01*
X189595000Y-67543761D01*
X189499761Y-67591380D01*
X189404523Y-67591380D01*
X189309285Y-67543761D01*
X189261666Y-67496142D01*
X189214047Y-67400904D01*
X189166428Y-67210428D01*
X189166428Y-66972333D01*
X189214047Y-66781857D01*
X189261666Y-66686619D01*
X189309285Y-66639000D01*
X189404523Y-66591380D01*
%TO.C,J11*%
X109263380Y-70278523D02*
X109977666Y-70278523D01*
X110120523Y-70326142D01*
X110215761Y-70421380D01*
X110263380Y-70564238D01*
X110263380Y-70659476D01*
X110263380Y-69278523D02*
X110263380Y-69849952D01*
X110263380Y-69564238D02*
X109263380Y-69564238D01*
X109406238Y-69659476D01*
X109501476Y-69754714D01*
X109549095Y-69849952D01*
X110263380Y-68326142D02*
X110263380Y-68897571D01*
X110263380Y-68611857D02*
X109263380Y-68611857D01*
X109406238Y-68707095D01*
X109501476Y-68802333D01*
X109549095Y-68897571D01*
%TO.C,J12*%
X136187380Y-70278523D02*
X136901666Y-70278523D01*
X137044523Y-70326142D01*
X137139761Y-70421380D01*
X137187380Y-70564238D01*
X137187380Y-70659476D01*
X137187380Y-69278523D02*
X137187380Y-69849952D01*
X137187380Y-69564238D02*
X136187380Y-69564238D01*
X136330238Y-69659476D01*
X136425476Y-69754714D01*
X136473095Y-69849952D01*
X136282619Y-68897571D02*
X136235000Y-68849952D01*
X136187380Y-68754714D01*
X136187380Y-68516619D01*
X136235000Y-68421380D01*
X136282619Y-68373761D01*
X136377857Y-68326142D01*
X136473095Y-68326142D01*
X136615952Y-68373761D01*
X137187380Y-68945190D01*
X137187380Y-68326142D01*
%TO.C,J13*%
X159047380Y-70278523D02*
X159761666Y-70278523D01*
X159904523Y-70326142D01*
X159999761Y-70421380D01*
X160047380Y-70564238D01*
X160047380Y-70659476D01*
X160047380Y-69278523D02*
X160047380Y-69849952D01*
X160047380Y-69564238D02*
X159047380Y-69564238D01*
X159190238Y-69659476D01*
X159285476Y-69754714D01*
X159333095Y-69849952D01*
X159047380Y-68945190D02*
X159047380Y-68326142D01*
X159428333Y-68659476D01*
X159428333Y-68516619D01*
X159475952Y-68421380D01*
X159523571Y-68373761D01*
X159618809Y-68326142D01*
X159856904Y-68326142D01*
X159952142Y-68373761D01*
X159999761Y-68421380D01*
X160047380Y-68516619D01*
X160047380Y-68802333D01*
X159999761Y-68897571D01*
X159952142Y-68945190D01*
%TD*%
M02*
